<?xml version="1.0" encoding="UTF-8"?><svg xmlns="http://www.w3.org/2000/svg" xmlns:xlink="http://www.w3.org/1999/xlink" viewBox="0 0 542 765.67"><defs><style>.ae{letter-spacing:-.02em;}.af{fill:#722332;}.ag{letter-spacing:-.08em;}.ah{letter-spacing:-.01em;}.ai{letter-spacing:-.02em;}.aj{letter-spacing:-.01em;}.ak{opacity:.5;}.al{letter-spacing:-.03em;}.am{fill:#c72736;}.an{letter-spacing:-.07em;}.ao{font-family:Calibri-Bold, Calibri;}.ap{font-family:Calibri, Calibri;font-size:15.42px;}.ap,.aq,.ar{fill:#fbe3d0;}.as{letter-spacing:0em;}.at{letter-spacing:-.05em;}.au{letter-spacing:-.01em;}.av{letter-spacing:0em;}.aw{letter-spacing:0em;}.ax{fill:#d5443b;}.ay{fill:url(#d);}.b`{fill:none;}.ar{font-size:12.85px;}.ba{letter-spacing:0em;}.bb{letter-spacing:0em;}.bc{fill:#dd5a1a;}.bd{font-family:Calibri-Light, Calibri;}.be{letter-spacing:-.03em;}.bf{letter-spacing:-.03em;}.bg{clip-path:url(#g);}</style><linearGradient id="d" x1="270.51" y1="-83.25" x2="270.51" y2="890.17" gradientTransform="matrix(1, 0, 0, 1, 0, 0)" gradientUnits="userSpaceOnUse"><stop offset="0" stop-color="#722332"/><stop offset=".36" stop-color="#e6704c"/><stop offset=".76" stop-color="#efae5f"/><stop offset="1" stop-color="#f8c592"/></linearGradient><clipPath id="g"><rect class="b`" x=".09" y="424.04" width="541.02" height="264.49"/></clipPath></defs><g id="a"/><g id="b"><g id="c"><rect class="ay" width="541.02" height="765.08"/><g id="e" class="ak"><ellipse class="aq" cx="278.43" cy="440.54" rx="173.79" ry="173.7" transform="translate(-119.43 103.93) rotate(-17.47)"/></g><g id="f"><g class="bg"><path class="am" d="M167.85,561.82c.51-.08,.45-.58,.51-1.05-.28-.91-.15-2-.82-2.88-.14-.18-.28-.39-.53-.35-.28,.04-.29,.31-.3,.53-.04,1.04-.03,2.08,.39,3.07,.15,.34,.34,.74,.75,.68Z"/><path id="h" class="am" d="M586.69,552.88c9-6.06-10.35,3.24-10.37,2.6-1.63-.18-2.96,.52-4.31,1.33-2.87,1.73-5.85,3.2-9.28,3.46-.29,.02-.61,.21-.84,.41-1.17,1.08-2.6,1.61-4.11,2.01-1.31,.35-2.63,.7-3.89,1.18-1.54,.59-2.01,.35-2.1-1.36-.06-1.25-.21-2.47-.75-3.61-.06,1.38-.15,2.72-.37,4.07-.28,1.72-1.05,2.33-2.8,2.04-.58-.09-1.17-.33-1.72-.25-1.42,.2-1.98-.31-1.64-1.71,.16-.64,.43-1.26,.42-2.13-.93,.85-.69,1.89-.87,2.74-.22,1.01-.61,1.53-1.61,1.91-.91,.34-1.95,.43-2.67,1.36-.54,.7-1.15,.09-1.46-.51-.16-.3-.06-.73-.19-1.06-.16-.42-.04-1.21-.74-1.09-.65,.11-.88,.8-.7,1.41,.21,.71,.27,1.43,.21,2.15-.03,.44,.25,1.07-.51,1.21-.61,.12-1.17,.03-1.57-.54-.27-.38-.35-1.13-.95-.96-.58,.17-.2,.88-.32,1.33-.13,.47-.33,.85-.82,.98-.56,.14-.84-.25-1.07-.65-.16-.27-.21-.6-.37-.87-.17-.28-.07-.87-.56-.79-.55,.09-.44,.76-.36,1.01,.23,.76,.29,1.67-.38,1.89-.68,.23-.71-.86-1.09-1.32-.38-.46-.64-1.37-1.39-.57-.93,.98-1,.11-1.15-.45-.24-.92-.27-1.92-1.16-2.88,0,1.33,.01,2.4,0,3.46,0,.34,.12,.8-.36,.91-.39,.09-.49-.31-.67-.56-.23-.31-.25-.95-.72-.86-.54,.1-.33,.75-.46,1.16-.12,.41-.18,1.1-.82,.6-1.49-1.14-2.95-.83-4.34,.05-.98,.62-1.31,.18-1.46-.67-.35-2-1.27-3.82-1.74-5.85-.68,.42-1.52,.54-1.37,1.53,.14,.91-.22,1.67-.62,2.45-.51,1-1.07,1.99-1.11,3.16-.01,.49-.03,1.04-.72,1.12-.67,.07-.81-.47-1-.91-.45-1.04-1.17-1.86-2.03-2.67-.59,1.27,.24,2.34,.33,3.47,.06,.75,.08,1.35-.64,1.49-.82,.16-.9-.69-.93-1.22-.06-.97-.64-1.59-1.24-2.45-.25,.82-.41,1.46-.39,2.15,.05,1.31-.57,2.16-1.7,2.85-1.1,.67-1.6,.34-2.07-.69-.58-1.28-1.24-2.51-1.9-3.75-.21-.4-.54-.78-1.08-.64-.56,.14-.57,.63-.55,1.1,.01,.32,.04,.63,.08,.94,.05,.46,.53,1.15-.01,1.31-.64,.19-.76-.57-.86-1.11-.04-.22-.09-.45-.19-.65-.55-1.01-.67-2.23-1.48-3.35-1.15,3.18,1.06,6,.27,9.1-.9-.86-1.07-1.91-1.76-2.63-1.52-1.6-2.53-3.42-2.32-5.76,.16-1.83-1.24-2.9-2.26-4.53-.41,2.84,.77,5.42-.33,7.9-.65-.26-.5-.77-.56-1.19-.15-1.03-.27-2.06-.45-3.08-.05-.28-.19-.68-.6-.59-.32,.07-.28,.43-.28,.69,0,1.18,.05,2.36-.01,3.53-.03,.59,.37,1.58-.28,1.68-.71,.1-.94-.9-1.18-1.56-.06-.17-.02-.38-.1-.53-.55-.97-.44-2.27-1.77-3.29,.39,2.51,.19,4.72,.95,6.86-1.64-2.18-2.71-4.58-3.09-7.23-.22-1.49-.9-2.65-2.03-3.65,.32,1.12,.42,2.27,.73,3.37,.37,1.29,.26,2.6,.11,3.9-.05,.41-.26,.96-.85,.88-.54-.07-.67-.54-.69-1.03-.05-1.06,.33-2.05,.46-3.07,.06-.47,.25-1.16-.33-1.33-.72-.22-.67,.59-.81,.99-.49,1.41-.89,2.85-1.38,4.25-.13,.38-.21,1.02-.79,.94-.49-.07-.42-.62-.45-1.02-.02-.32-.02-.79-.33-.83-1.41-.2-.97-1.25-1.04-2.07-.04-.43,.17-1.08-.38-1.18-.59-.11-.58,.55-.67,.97-.09,.43-.29,.87-.71,.89-.48,.03-.76-.45-.91-.87-.23-.64-.38-1.3-.59-1.94-.23-.72-.33-1.49-1.06-2.44-.01,3.54,.34,6.66,.77,9.79,.1,.76,.54,2.01-.26,2.17-.81,.16-.64-1.14-.85-1.84-.16-.53-.21-1.42-.99-1.18-1.43,.44-1.68-.19-1.65-1.38,0-.34-.16-.7-.3-1.03-.57-1.29-.62-2.6-.36-3.98,.19-.97,.52-1.97,.3-3.08-2.23,1.38-1.98,3.57-2.13,5.58-.08,1.08,0,2.17,.01,3.26,0,.3,.09,.72-.35,.75-.34,.03-.4-.33-.38-.6,.05-.78-.34-1-1.08-1-.94,0-.48,.93-1,1.36-1.55-1.66-1.9-3.62-1.7-5.74,.03-.33,.36-.74-.15-.92-.44-.16-.63,.24-.83,.54-.54,.82-.19,1.74-.24,2.61-.14,2.17-.37,2.38-2.4,1.8-.76-.22-.89,.03-.7,.73,.2,.75,.73,1.23,1.24,1.74,.34,.34,.41,.73-.01,1.04-.41,.3-.77,.14-1.04-.25-.22-.34-.35-.82-.66-1.01-.57-.35-.94-1.33-1.57-1.12-.68,.22-.18,1.12-.27,1.71-.04,.31,0,.68-.42,.75-.39,.06-.55-.25-.7-.53-.34-.63-.77-1.22-.93-1.95-.13-.57-.52-.99-1.09-1.09-.67-.12-.59,.54-.78,.9-.15,.28-.25,.63-.66,.56-.34-.05-.37-.36-.4-.63-.2-2.38-1.6-4.4-1.94-6.74-.07-.45-.19-.96-.95-1.17,.34,2.27,.43,4.42,0,6.59-.96-2.08-1.36-4.36-2.58-6.3-.17,1.82,.42,3.67-.43,5.43-.75-.43-.75-1.41-1.56-1.76-.57,1.46-.53,2.79,.17,4.11,.15,.28,.46,.72-.07,.91-.43,.15-.63-.25-.78-.58-.07-.16-.13-.34-.17-.51-.73-2.88-1.71-5.73-1.42-8.78,.03-.28,.12-.65-.38-.82-.35,.37-.39,.85-.43,1.33-.1,1.26-.16,2.53-.31,3.78-.05,.42,.02,1.06-.41,1.22-.58,.21-.66-.63-1.11-.81-.08-.03-.16-.11-.19-.19-.71-2.14-2.22-3.73-3.61-5.43-.42-.52-.75-1.23-.44-2.12,.36-1,.51-2.05,1.13-2.99,.57-.87,1.07-1.91,1-2.92-.21-3.23,.94-6.23,1.5-9.32,.26-1.45,1.31-2.55,2.3-3.62,.35-.38,.83-.32,1.28-.24,2.6,.47,5.14,.39,7.6-.69,.89-.39,1.72-.34,2.54,.33,1.07,.88,2.37,1.06,3.73,.96,.96-.07,1.49-.59,1.59-1.53,.13-1.26-.09-2.46-.84-3.49-1.39-1.88-1.69-4.03-1.88-6.27-.21-2.46-1.89-4.43-2.48-6.78,0-.04-.06-.07-.09-.1-.76-.44-.79-1.16-.7-1.9,.06-.53,.26-1.07,.23-1.59-.03-.58,.42-1.37-.33-1.7-.7-.31-1.13,.39-1.61,.78-.17,.14-.33,.32-.44,.51-.59,1-1.59,1.5-2.61,1.42-3.03-.22-5.36,1.34-7.69,2.83-1.99,1.28-3.78,2.87-5.71,4.24-1.36,.97-2.22,.55-2.57-1.11-.1-.48-.18-.97-.33-1.44-.11-.35-.45-.45-.78-.37-.28,.07-.56,.32-.39,.59,.38,.64,.04,1.35,.3,1.98,.17,.42,.45,.91-.19,1.11-.51,.16-.84-.27-1.02-.7-.33-.79-.61-1.59-.92-2.39-.13-.34-.31-.76-.72-.67-.41,.09-.23,.54-.21,.82,.04,.58,.04,1.2,.26,1.71,.49,1.12-.05,1.39-1.01,1.62-2.56,.61-5.17,.78-7.78,.99-3.44,.28-6.88-.32-10.33-.26-3.63,.07-7.23-.19-10.83-.68-3.26-.45-6.35-.02-8.92,2.28-.58,.52-1.3,.52-2.03,.61-2.29,.27-4.52,.74-5.81,2.95-1.4,2.4-2.51,4.93-3.28,7.61-.24,.84-.77,1.47-1.74,1.71-2.25,.53-4.46,1.21-6.71,1.74-4.36,1.01-8.74,1.95-13.11,2.93-.84,.19-1.46-.08-1.81-.81-.31-.65-.83-.85-1.44-.76-1.36,.22-2.59-.05-3.77-.73-.55-.32-1.18-.4-1.83-.28-.57,.11-1.17,.02-1.43-.54-.58-1.28-.91-2.66-.71-4.05,.15-.96,1.16-1.28,1.96-1.67,.85-.42,1.38-.92,.69-1.89-.32-.45-.29-.94-.03-1.41,.46-.82,.24-1.59-.24-2.29-.5-.72-.74-1.55-1.16-2.29-1.18-2.08-1.6-4.68-3.93-6.02-.29-.17-.37-.51-.35-.84,.1-2.29-1.08-2.8-3.07-2.64-.78,.06-1.47-.04-1.88-.78-.5-.91-1.37-1.87-1.32-2.77,.14-2.74-2.01-3.97-3.34-5.74-.13-.18-.34-.3-.48-.48-.26-.31-.33-.65,0-.96,1.61-1.51,2.13-3.38,1.91-5.52-.07-.66,.17-1.03,.9-1.01,.49,.01,.94-.12,.92-.73-.03-.69-.53-.77-1.07-.72-.94,.08-1.58-.26-2.2-1.02-.92-1.13-2.3-1.59-3.72-1.72-1.07-.1-1.87,.31-1.81,1.59,0,.18-.02,.36-.06,.54-.16,.74-.53,1.19-1.38,1.2-.89,.01-.86-.64-1-1.18-.18-.69-.12-1.56-.52-2.06-1.9-2.38-1.53-4.55,.34-6.7,.41-.47,.66-1.15,.16-1.61-1.64-1.5-3.24-3.15-5.6-3.47-3.78-.51-7.59-.36-11.39-.42-6.44-.11-12.88-.39-19.32-.41-3.07-.01-6.14-.24-9.22-.2h-.25c-1.05,.02-2.1,.08-3.15,.19-.29,.03-.59-.04-.78-.18h-3.22c-.24,0-.46-.02-.67-.06-.05,0-.1,0-.16,.01-1.27,.05-2.51-.24-3.77-.27-7.39-.14-14.79-.22-22.19-.34-1.62-.02-3.24-.08-4.86-.14-5.08-.19-10.16-.11-15.25-.11-.88,0-1.83,.19-2.2,1.07-.4,.94-.34,1.93,.39,2.8,.61,.74,1,1.56,1.12,2.56,.38,3.06,.49,6.14,.45,9.2-.07,5.95,.29,11.89-.35,17.87-.34,3.25-.18,6.61-.34,9.93-.22,4.37-.66,8.76-.4,13.15,.06,1.05-.17,1.82-1.32,2.19-.72,.23-1.45,.68-1.41,1.63,.04,1.03,.66,1.68,1.58,2,1.24,.42,2.51,.76,3.83,.9,2.92,.32,3.18,.68,2.87,3.61-.08,.73-.37,1.05-1.11,1.03-1.09-.03-2.18-.02-3.27,0-3.08,.05-2.98-.59-2.97,3.01,0,1.1-.13,2.09-1.13,2.95-.39-1.01-.75-1.88-1.06-2.76-.18-.5-.41-1.01-.97-.98-.67,.04-.58,.7-.66,1.16-.09,.48-.07,1.11-.65,1.22-.62,.12-.92-.47-1.25-.89-.32-.41-.4-.89-.4-1.41,0-.54-.02-1.09-.08-1.63-.03-.28-.19-.55-.51-.52-.26,.03-.25,.33-.32,.54-.48,1.45-.25,2.96-.38,4.44-.05,.63-.19,1.37-1.02,1.38-.86,0-1.29-.61-1.36-1.41-.07-.81-.03-1.63-.07-2.44-.02-.36-.08-.85-.47-.88-.53-.04-.56,.48-.58,.89-.04,.86,0,1.73-.1,2.58-.06,.51-.32,1.32-1,.73-1.09-.96-1.32-.18-1.74,.58-.23,.42-.55,.96-1.09,.89-.55-.07-.64-.68-.8-1.15-.28-.82-.15-1.83-1.15-2.33-.48-.24-.87-.65-1-1.23-.05-.23-.2-.46-.45-.45-.38,.02-.3,.37-.36,.62-.29,1.16-.22,2.34-.26,3.51-.01,.32,.13,.82-.41,.84-.43,.01-.33-.45-.47-.72-.39-.77-.14-1.9-1.18-2.31-.81-.32-1.17-.95-1.38-1.72-.11-.41-.19-.87-.79-1.11-.06,.33-.15,.58-.13,.82,.1,1.8,.23,3.6,.32,5.4,.02,.37,.19,.95-.38,1-.57,.05-.67-.51-.73-.96-.11-.94-.17-1.89-.26-2.83-.05-.47,.04-1.21-.55-1.21-.52,0-.74,.69-.8,1.24-.06,.64,.04,1.33-.66,1.83-.66-.94-.32-1.93-.45-2.85-.04-.29,.09-.73-.34-.78-.34-.04-.63,.3-.65,.59-.11,1.23-.69,2.33-.94,3.52-.1,.47,.05,1.17-.65,1.1-.57-.05-.55-.75-.64-1.22-.07-.35-.12-.78,.16-1.04,1.75-1.72,.76-4.18,1.69-6.13,.1-.21,.03-.55-.29-.68-.3-.12-.53,.06-.74,.22-.56,.45-.56,1.08-.57,1.72-.03,1.25,.04,2.49-1.07,3.5-1.52,1.38-1.56,2.06-.61,4,.14,.3,.26,.59,.08,.9-.23,.39-.61,.36-.96,.25-.57-.19-1.16-.35-1.72-.08-.71,.34-1.09,.08-1.4-.55-.81-1.61-.83-3.36-.96-5.1-.05-.69,.02-1.41-1.06-1.95,0,1.99,.01,3.74-.01,5.5,0,.3,.24,.83-.34,.85-.39,0-.59-.38-.63-.77-.03-.27,0-.54-.03-.81-.13-1.1-.27-2.2-.41-3.31-.58,.5-.71,1-.74,1.56-.07,1.46,.27,3.01-1.42,3.98-.51,.3-.91,.67-1.54,.61-.73-.07-10.8-1.39-11.67-1.11-.96,.3-9.64-3.77-9.69-2.03,0,.12-.28,.2-.47,.1-.23-.13-.26-.36-.26-.58,0-.63,.02-1.27,0-1.9,0-.27-.03-.57-.41-.57-.28,0-.34,.25-.43,.45-.45,1.01-.5,2.11-.4,3.15,.08,.84-.22,.92-.85,.91-.14,0-.28,0-.41,.02-1.72,.41-2.05,.12-1.82-1.66,.09-.72,.27-1.42,.4-2.13,.06-.37,.34-.91-.19-1.03-.44-.1-.67,.45-.75,.82-.23,1.05-.38,2.13-.58,3.19-.07,.35,.2,.93-.43,.96-.52,.02-.54-.51-.69-.88-.1-.25-.21-.51-.37-.72-.28-.37-.63-.71-1.14-.42-.5,.28-.34,.64-.06,1.02,.25,.33,.33,.73-.13,.9-.52,.19-.76-.25-.84-.64-.13-.58-.09-1.17-.98-1.14-.92,.03-.82,.64-.84,1.22-.01,.29-.11,.58-.45,.55-.38-.04-.25-.4-.3-.64-.25-1.21-.37-2.43-.09-3.7-.55,.45-.88,.87-1.03,1.47-.35,1.44-2.01,1.68-2.81,2.77-.19,.26-.72-.03-.71-.5,.02-1.15-.36-1.15-1.1-.44-.3,.29-.57,.02-.82-.19-.3-.25-.3-.78-.84-.83-.05,.06-.11,.12-.15,.19-.38,.74,.07,1.86-.87,2.3-1.32,.61-2.73,.92-4.21,.81-.35-.03-.62-.1-.69-.49-.09-.52-.05-.95,.42-1.32,1.18-.93,1.15-2.28,1.42-3.67-.72,.15-.89,.59-.96,.93-.26,1.35-1.68,1.86-2.14,3.05-.06,.16-.28,.24-.47,.13-.3-.16-4.62-.03-4.63,.57,0,.16-.08,.37-.2,.46-.22,.16-.48,.03-.58-.16-.53-.99-1.32-1.84-1.65-2.94-.11-.36,.09-.98-.45-.97-.55,.01-.49,.64-.6,1.07-.21,.82,.36,1.63,.08,2.49-.47-.09-.55-.42-.74-.66-.36-.45-.29-1.51-1.13-1.23-.65,.22-.61,1.12-.67,1.8-.01,.13,0,.27,0,.41,0,.46,.03,1.05-.56,1.04-.58,0-.83-.51-.68-1.09,.1-.4,.3-.83-.18-1.07-.48-.24-.57,.32-.81,.53-1,.86-1.4,.83-2.01-.28-.33-.6-.53-.79-.99-.06-.68,1.07-1.82,.92-2.65,.46-.93-.52-.62-1.54-.14-2.28,.37-.58,.49-1.16,.43-1.8-.05-.51,.24-1.28-.41-1.44-.6-.15-.81,.54-1,1.05-.16,.41-.35,.82-.59,1.19-.18,.27-.03,.86-.57,.76-.4-.07-.45-.5-.49-.88-.12-1.05-.25-2.1-.43-3.54-1.06,1.45-.98,2.74-.84,4,.06,.6,.08,1.18-.12,1.73-.24,.69-.71,1.12-1.5,1.16-.85,.04-1.03-.48-1.19-1.17-.21-.92-.44-1.86-.84-2.72-.31-.67-.28-1.58-1.37-2.16,0,1.07,.03,1.92-.01,2.76-.03,.56,.32,1.36-.77,1.37-.94,.01-.99-.57-.98-1.26,.01-.46,0-.97-.55-1.12-.86-.23-1.13-.81-1.14-1.62,0-.37-.1-.79-.57-.78-.56,.02-.55,.52-.56,.92,0,.72,.02,1.45,.03,2.17,0,.28-.05,.57-.4,.61-.31,.04-.55-.14-.63-.42-.15-.56-.25-1.14-.36-1.72-.07-.38,.07-.96-.5-.93-.46,.03-.49,.59-.51,.98-.03,1.18-.02,2.35-.03,3.53,0,.43-.08,.83-.54,1-.5,.18-.85-.03-1.17-.42-.67-.8-.6-1.65-.25-2.52,.37-.93,.59-1.93-.28-2.59-.72-.55-.8-1.2-1.01-1.95-.24-.85,.2-1.94-.82-2.63-.45,.74-.24,1.45-.16,2.15,.24,2.19,.46,4.38,.14,6.58-.06,.43-.15,.86-.68,.85-.62-.02-.47-.55-.48-.93-.01-.68,.02-1.36,.01-2.04,0-.54-.01-1.09-.1-1.62-.06-.34-.21-.8-.58-.85-.45-.06-.49,.45-.6,.77-.33,.94-.58,1.9-.53,2.92,.02,.38,.15,.92-.43,.98-.53,.06-.77-.45-.92-.85-.12-.32-.07-.71-.07-1.08-.04-1.96-.33-3.86-1.1-5.68-.09-.2-.08-.48-.39-.45-.25,.03-.38,.25-.41,.48-.05,.36-.09,.72-.07,1.08,.07,1.26,.22,2.52,.24,3.78,.01,1.05-.91,1.86-1.93,1.84-1.18-.02-1.51-.66-1.52-1.76,0-1.58-.74-3.08-.58-4.69,.02-.23-.08-.48-.34-.51-.36-.04-.44,.25-.45,.53-.01,.7-.45,.93-1.05,1.01-.33,.04-.66,.12-.79,.45-.42,.99-.83,1.99-1.19,3-.15,.41-.06,1.04-.62,1.05-.51,0-.66-.53-.71-1.01-.04-.4-.26-.69-.69-.71-.36-.02-.6,.2-.67,.56-.09,.44-.09,.98-.72,.96-.62-.02-1.25-.35-1.44-.89-.46-1.29-1.56-2.35-1.41-3.87,.06-.57-.06-1.14-.83-1.12-.63,.02-1.08,.42-1.04,1.03,.06,1-.44,1.72-.93,2.48-.16,.25-.15,.69-.6,.6-.43-.09-.51-.49-.52-.85-.03-.81,0-1.63-.02-2.44,0-.27,.03-.59-.31-.66-.14-.03-.41,.05-.47,.16-.71,1.3-2.09,2.12-2.56,3.59-.08,.24-.07,.62-.44,.55-.16-.03-.3-.31-.4-.5q-.84-1.64-2.52-.88c-1.81,.82-2.63,.53-3.25-1.16-.21-.58-.58-.79-.92-.17-.63,1.14-1.77,1.62-2.73,2.35-1.01,.76-1.43,.34-1.76-.61-.17-.5-.32-1.4-.82-1.24-1.32,.43-1.88-.17-2.37-1.18-.07-.14-.39-.19-.61-.22-1.25-.19-2.06-1.86-3.6-1.05-1.73-1.08-3.88-1.56-4.99-3.52-.27-.47-.71-.75-1.32-.84-3.74-.61-7.47-1.25-11.19-1.92-1.1-.2-2.14-.67-3.3-.63-5.59,.16-11.06-.46-16.46-2.05-4.13-1.22-7.92-2.88-11.1-5.88-1.49-1.41-3.18-2.63-4.91-3.8-5.31-3.61-10.89-6.75-16.29-10.21-2.62-1.67-5.18-3.42-7.77-5.14,0,42.19,0,84.38-.03,126.56,0,1.09,5.55,29.57,6.77,29.57,204-.04,420.99,10.4,625,10.4,0-30.16-8.08-103.41-8.09-133.57Zm-147.75-15.54c.98-2.21,2-2.68,4.28-1.81,1.45,.56,2.65,1.52,3.71,2.65,.66,.7,.42,1.18-.44,1.24-1.8,.12-3.5,.97-5.16,.7-.32,0-.45,0-.59,0-2.78-.04-2.92-.26-1.81-2.78Zm-374.33,24.04c-.09-.2-.16-.27-.15-.35,.04-.51-.22-1.08,.25-1.52,.05-.05,.3,0,.32,.05,.23,.63,.15,1.21-.42,1.81Zm134.94,3.84c-.45,.03-.85-.14-.83-.65,.02-.47,.51-.64,.85-.74,.53-.17,.39,.46,.6,.59,.01,.53-.21,.77-.63,.8Zm22.09-4.01c-.88,.11-1.42-.06-1.69-.69-.17-.38-.23-.81,.05-1.16,.41-.51,.98-.33,1.51-.25,.09,.01,.18,.04,.26,.07,.6,.24,1.7-.07,1.57,1.04-.12,1.1-1.2,.84-1.7,.99Zm37.58-8.37c.26-.07,.54-.06,.8-.09,.31,.11,.84-.15,.85,.4,0,.34-.38,.44-.73,.47-.26,.02-.54,.06-.78,.15-.33,.13-.75,.67-.97,.09-.2-.51,.31-.88,.83-1.02Zm-18.26-1.44c.39-.09,.72,.07,.9,.44,.12,.25,.14,.55-.06,.77-.28,.31-.61,.14-.86-.03-.56-.39-1.3-.17-2.07-.6,.84-.23,1.46-.43,2.09-.57Zm-14.5,13.23c-.17,.53-.51,.29-.81,0-.83-.82-.49-1.85-.58-2.86,0-.44-.02-.93,0-1.43,.03-.54,.04-1.21,.76-1.21,.64,0,1.35,.34,1.43,1.03,.18,1.55-.33,3.02-.79,4.48Zm1.61-9.88c-.05,.29-.18,.65-.6,.58-.3-.05-.42-.32-.46-.59-.1-.62-.17-1.24-.25-1.79,.02-.43,0-.8,.07-1.14,.1-.52,.5-.75,.99-.71,.48,.04,.69,.45,.65,.87-.09,.93-.23,1.86-.4,2.78Zm3.28-.95c.09-.3,.26-.6,.26-.89-.03-1.28,.61-1.69,1.65-1.46,1.31-.04,2.32,.29,3.26,1.04,1.23,.97,2.86,1.01,4.3,1.52,.64,.23,1.36,.46,1.23,1.15-.1,.56-.88,.74-1.49,.62-2.68-.53-5.38-.28-8.07-.34-1.22-.03-1.48-.46-1.15-1.64Zm3.57,9.95c-.5,.19-.51-.33-.64-.64-.11-.26-.28-.49-.6-.41-.29,.07-.42,.33-.45,.61-.07,.63-.03,1.25,.17,1.86,.1,.32,.06,.66-.28,.81-.42,.18-.51-.19-.68-.45-.62-.97-.96-2.01-.87-3.02-.09-1.8,1.45-2.82,2.98-2.05,1.03,.51,.46,1.52,.57,2.31,.05,.32,.19,.82-.2,.97Zm9.27-2.71c-.83,.35-1.56,1.01-2.55,.16-.38-.33-2.17,1.18-2.22,1.83-.04,.58-.13,1.08-.79,1.25-.61,.15-.91-.3-1.2-.69-.27-.35-.49-.75-.68-1.15-.27-.58-.99-1.09-.6-1.79,.47-.85,1.36-.46,2.09-.45,1.92-.29,3.84,.22,5.76-.05,.34-.05,.83-.13,.93,.32,.11,.52-.43,.43-.74,.56Zm1.43,5.33c-.12-.9-.47-1.83,.59-2.92,0,1.29-.13,2.13-.59,2.92Zm.67-13.53c-.31-.34-.25-.72,.13-.91,.61-.31,1.18-.29,1.69,.3,.75,.88,1.02,2.1,2.09,2.79-1.71-.09-2.88-1.02-3.91-2.18Zm3.57,14.68c-.31-1.11-.48-2.19,1.11-3.08-.74,1.16-.51,2.23-1.11,3.08Zm7.07-.45c-.62-1.16-.78-2.41-1.54-3.35-.11-.14-.03-.37,.17-.43,.1-.03,.29,.04,.34,.12,.7,1.05,1.7,2,1.02,3.66Zm1.6-3.73c-.74-.29-1.5-.63-1.64-1.5-.05-.31,.07-.9,.67-.78,1.04,.22,.95,1.3,1.43,1.93-.01,.34-.24,.43-.45,.35Zm3.63,3.41c-.79-.07-1-.94-1.11-1.63-.1-.58,.28-.93,.89-.88,.88,.07,.71,.76,.74,1.34-.11,.43,.09,1.23-.52,1.17Zm3.43,1.2c-.36,.06-.62-.12-.69-.47-.08-.43,.16-.69,.58-.73,.37-.03,.55,.23,.66,.47,0,.44-.19,.67-.54,.73Zm3.33-1.58c-.33,0-.49-.18-.51-.49-.03-.4,.2-.57,.57-.53,.31,.03,.66,.13,.62,.53-.04,.36-.37,.45-.68,.49Zm-.05-3.49c-.58-.08-1.06-.49-.97-1.11,.1-.74,.79-.6,1.31-.61,.41,0,.85,0,.83,.66-.33,.39-.39,1.17-1.17,1.06Zm3.27,.95c0-.75,.31-1.48,.09-2.26-.09-.34,.22-.57,.58-.6,.42-.03,.73,.22,.78,.6,.07,.53,.02,1.07,.02,1.61h-.02c0,.22,0,.45,0,.67-.03,.48,.09,1.13-.61,1.15-.69,.02-.83-.63-.83-1.17Zm1.3,4.93c-.73,0-.9-.61-.98-1.2,.03-.36-.02-.9,.48-.78,.61,.15,1.44,.31,1.51,1.08,.04,.44-.49,.92-1.01,.91Zm3.03-4.06c-.05,.41-.02,1.18-.73,1.06-.59-.1-1.21-.43-1.21-1.24,0-.41,0-.81,0-1.22h-.02c0-.36,0-.72,0-1.08-.02-.74,.38-1.06,1.08-1.09,.7-.03,.97,.36,.95,1.01-.02,.85,.03,1.72-.08,2.56Zm-.49-9.01c-2.45-.17-4.85,.55-6.68,.41-3.29-.1-5.92,.42-8.59,.59-.37,.02-.71,.1-1.04-.11-.19-.12-.43-.25-.35-.5,.04-.13,.25-.22,.4-.28,2.06-.8,4.14-1.55,6.1-2.59,.86-.45,1.87-.48,2.8-.33,2.03,.32,4.07,.14,6.1,.21,.64,.02,1.27,.09,1.82,.45,.63,.41,.87,1.15,.81,1.75-.08,.74-.89,.44-1.37,.4Zm15.86,8.22c-.41,.57-.75-.08-1.1-.29-.74-.45-.83,.04-.88,.61-.1,1.26-.21,2.51-.3,3.77-.03,.46,0,1-.63,.99-.51,0-.56-.49-.62-.9-.27-1.74-.55-3.47-.83-5.2-.06-.36-.11-.76-.57-.79-.39-.03-.55,.3-.59,.62-.11,.89-.88,1.28-1.39,2.1-.11-.36-.13-.53-.2-.68-.26-.49,.03-1.42-.67-1.46-.75-.05-.32,.88-.61,1.3-.23,.34-.4,.86-.87,.68-1.22-.47-1.07,.36-1.19,1.08-.18,1.1-.34,2.23-1.11,3.13-.19,.23-.31,.61-.72,.46-.31-.12-.27-.43-.29-.7-.2-2.32,.2-4.58,.81-6.78,.31-1.11,1.65-1.39,2.49-1,2.71,1.24,5.49,.67,8.26,.72,.14,0,.27-.04,.41-.03,.57,.03,1.36-.18,1.53,.51,.19,.73-.51,1.31-.91,1.86Zm5.45-9.05c-.23,.43-.45,.89-.58,1.36-.6,2.16-.59,2.15-2.88,2.11-1.67-.02-3.35,0-5.03,0v-.14c-2.08,0-4.17,.05-6.25-.01-2.01-.06-3.36-1.87-2.88-3.81,.18-.75,.86-.69,1.44-.7,4.28-.05,8.57-.54,12.86-.05,.85,.1,1.72,.03,2.58,0,1.01-.03,1.2,.38,.73,1.24Zm5.41,7.47c-.16,.78-.53,1.74-1.36,1.79-.8,.05-.82-.97-.85-1.58-.04-.75,.56-1.05,1.21-1.1,.62,.04,1.12,.3,1,.88Zm-1.16-3.88c-.48-.07-1.19,.13-1.18-.56,0-.64,.5-1.27,1.2-1.15,.59,.1,1.56,.25,1.5,1.02-.05,.72-.94,.64-1.53,.69Zm10.51-.82c-.12,.43-.53,.39-.78,.31-2.31-.73-5.12,.06-6.92-2.24-.37-.47-1.01-.35-1.48-.6-.44-.23-1.02-.4-.9-1.02,.11-.55,.63-.73,1.17-.73,.45,0,.9,0,1.23,0,1.75,.13,3.37,.23,4.99,.39,1.15,.12,2.99,2.84,2.69,3.89Zm3.85-3.06c-.49,.67-.46,1.43-.23,2.26,.13,.46-.22,.75-.7,.79-.61,.05-1.18-.16-1.25-.77-.09-.73-.46-1.22-.87-1.76-.54-.71-.34-1.18,.61-1.18,.63,0,1.26,0,1.89,.03,.36,.01,.62,.13,.54,.63Zm3.79,2.99c-.68-.1-1.37,.09-1.99-.04-.98-.2-.34-1.14-.53-1.72-.08-.26-.13-.52-.22-.9-.04-.24,.1-.53,.44-.63,.53-.14,1.08-.21,1.58,.09,.32,.19,.6,.51,.38,.9-.41,.72-.33,1.25,.42,1.69,.35,.2,.36,.68-.09,.61Zm1.42-1c-.35-.03-.58-.24-.59-.6,0-.3,.12-.52,.47-.53,.36,.12,.64,.34,.67,.74,.03,.38-.27,.42-.55,.4Zm-.07-16.28c-.33,.14-.69,.21-1.05,.32-.62-.3-1.2-.14-1.81,.11-.6,.25-.9-.3-1.16-.7-.28-.43-.38-.95,.04-1.37,.38-.37,.9-.29,1.26-.03,.75,.53,1.53,.71,2.43,.58,.32-.05,.81-.17,.91,.31,.09,.41-.29,.64-.62,.78Zm.3-29.9c-1.04,.23-1.91,.04-2.08-1.25-.08-.58-.18-1.15-.27-1.72,.01-.98,.11-1.86,1.39-1.91,1.26-.05,1.65,.65,1.65,1.78,0,.4,.12,.8,.21,1.19,.19,.87,.18,1.68-.89,1.91Zm3.43,31.82c-1.4-.44-1.76-1.16-1.35-2.58,.14-.47,.41-.67,.88-.66,.36,0,.72,.04,1.08,.03,2.16-.05,1.88,0,1.85,1.76,0,.27-.03,.54,0,.81,.14,1.1-.3,1.42-1.32,1.02-.38-.15-.76-.26-1.15-.39Zm1.88,24.87c-.52-.01-.51-.54-.54-.93-.03-.36-.03-.74,.5-.79,.45,.13,.83,.4,.79,.91-.03,.42-.34,.81-.76,.8Zm4.86-25.78c.82,.24,.68,1.18,.77,1.87,.11,.82,.33,1.59,.7,2.32,.16,.32,.29,.66,.39,.89,.01,.56-.21,.63-.61,.54-.58-.12-3.05-2.46-3.14-3.01-.12-.69,.3-1.15,.79-1.47,.49-.32,.39-1.36,1.11-1.15Zm-2.16-2.03c.62-.01,.84,.45,.85,.99,0,.62-.33,1.1-.94,1.09-.69-.02-.36-.67-.46-1.05,.07-.42-.14-1.01,.55-1.03Zm4.04,27.21c-.05,.42-.14,1.06-.7,.92-.54-.13-1.29-.38-1.29-1.11,0-.59,.56-.72,1.03-.67,.65,0,1.05,.23,.97,.87Zm.16-4.41c-.32,0-.63,0-1.09,0-.83,.07-1.81-.09-2.8,.22-.99,.31-1.56-.28-1.34-1.35,.16-.78,.3-1.47-.16-2.19-.32-.5-.05-.81,.44-1.05,.63-.31,1.28-.41,1.97-.37,1.39,.09,2.76,.42,4.17,.32,.52-.03,.85,.24,.94,.77,.06,.31,.15,.61,.2,.92,.36,2.27-.05,2.74-2.33,2.72Zm17.47-11.67c5.69-1.25,11.4-2.39,17.11-3.59,1.14-.24,2.26-.56,3.38-.88,.44-.13,1-.41,1.19,.11,.22,.6-.39,.8-.88,.95-2.73,.84-5.54,1.33-8.33,1.86-5.54,1.04-11.09,2.05-16.57,3.42l-.15-.36c1.41-.51,2.79-1.19,4.25-1.51Zm26.46,16.08c-.64,.51-.78,1.04-.75,1.74,.04,1.13-.08,2.26,.21,3.38,.08,.31,.09,.67-.26,.84-.4,.21-.53-.16-.74-.39-1.08-1.17-1.41-2.57-1.42-4.12,0-.56,.25-1.26-.57-1.79-.35,2.13-.9,4.09-.63,6.5-1.22-1.41-1.04-2.84-1.32-4.13-.31-1.39,.06-2.77,.02-4.25-.84,.21-.81,.87-.91,1.38-.17,.85-.42,1.66-.78,2.45-.11,.25-.29,.5-.61,.43-.33-.07-.34-.38-.35-.65-.01-.5,0-1-.02-1.49-.02-.33-.11-.65-.5-.71-.42-.07-.6,.28-.64,.56-.12,.81-.47,1.26-1.35,1.4-.59,.1-.73,.72-.71,1.32,.02,.9,0,1.79,0,2.77-.76-.1-1.14-.56-1.13-1.39,0-.72,0-1.45,0-2.17,0-.51-.32-.73-.74-.84-.54-.14-.54,.35-.68,.65-.33,.69-.13,1.43-.19,2.14-.02,.33,.16,.78-.37,.88-.42,.08-.69-.25-.87-.54-.59-.95-.77-2-.71-3.11,.02-.43-.05-.86-.09-1.52-.7,.72-.84,1.41-.92,2.1-.05,.44-.14,.84-.65,.88-.47,.04-.79-.29-.93-.67-.35-.97-.92-1.88-.89-2.96,.02-.76-.23-1.34-1.08-1.45-.88-.12-1.04,.47-1.18,1.14-.05,.25-.26,.47-.38,.71-.1,.19-.1,.48-.4,.46-.34-.02-.41-.3-.46-.58-.12-.76-.2-1.52-.37-2.27-.13-.58-.38-1.26-1.13-1.09-.66,.15-1.12,.58-1.03,1.45,.06,.65,.43,1.7-.47,1.86-.8,.15-.95-.93-1.27-1.54-.2-.38-.18-1.01-.79-.93-.6,.08-.48,.73-.55,1.11-.2,1.06-.29,2.14-.39,3.22-.05,.54,.03,1.12-.71,1.27-.67,.13-1.07-.26-1.27-.78-.66-1.71-1.69-3.31-1.59-5.25,.03-.54-.17-1.08-.73-1.14-.59-.06-.76,.48-.9,.99-.4,1.47-.14,2.85,.45,4.2,.09,.21,.22,.4,.27,.62,.08,.34,.26,.8-.15,.97-.52,.21-.69-.26-.82-.66-.66-2-1.31-4.01-2-6.01-.13-.38-.14-1.1-.74-.93-.57,.16-.19,.75-.14,1.17,.2,1.58,.94,3.08,.79,4.81-.89-.3-.97-1.03-1.09-1.65-.47-2.38-.57-4.83-1.34-7.17-.39-1.18,.24-1.79,1.41-2.15,3.19-.99,6.51-1.4,9.74-2.22,6.39-1.62,12.91-2.62,19.37-3.95,1.37-.28,2.99-.82,4.12-.34,1.14,.48,.71,2.46,1.32,3.63,1.5,2.83,1.92,6.1,3.74,8.8,.84,1.25,.49,4.03-.71,5Zm3.86-5.5c-.15,.31-.37,.53-.74,.46-.37-.08-.44-.41-.52-.72-.46-1.82-.3-3.68-.34-5.87,.26-2.01-.26-4.33-.24-6.67,0-.56-.16-1.33,.67-1.36,.76-.03,1.46,.14,1.55,1.25,.11,1.39,.65,2.65,1.36,3.91,.97,1.71,.43,3.62-.05,5.38-.35,1.27-1.12,2.43-1.7,3.64Zm7.43,11.21c-.58-.64-.81-1.37-.82-2.2-.04-2.03-.19-4.06,.26-6.06,.06-.27,.06-.57-.27-.68-.38-.12-.63,.13-.7,.46-.13,.61-.21,1.24-.3,1.87-.14,.95-.43,1.81-1.11,2.56-.68,.74-.5,1.8-.8,2.69-.1,.31,.07,.87-.43,.87-.49,0-.61-.54-.64-.91-.1-1.35-.03-2.71-.43-4.03-.13-.43-.2-.88-.3-1.32-.15-.63,.1-1.2,.67-1.31,1.48-.29,2.07-1.51,2.88-2.51,.35-.43,.64-.94,1.28-.83,.76,.13,.83,.84,.85,1.39,.1,3.33,.21,6.66-.14,10.03Zm35.98-3.41c-.01,.32,0,.71-.41,.75-.42,.04-.47-.34-.51-.66-.07-.63-.21-1.25-.48-1.83-.14-.3-.31-.59-.68-.58-.32,0-.44,.31-.5,.57-.41,1.9-1.81,3.18-2.92,4.63-.3,.39-.65,.82-1.23,.69-.65-.14-.81-.73-.85-1.26-.08-1.04-.04-2.08-.06-3.12,0-.26,.03-.61-.31-.65-.16-.02-.37,.21-.51,.37-1.03,1.11-.88,2.5-.87,3.85,0,.38,.26,.94-.31,1.03-.62,.1-.65-.48-.69-.94-.1-1.16-.13-2.29,.19-3.47,.62-2.23,.26-4.49-.27-6.73,.07,1.62-.84,3.08-.73,4.68,.1,1.42-.44,2.65-.88,3.92-.11,.33-.2,.78-.69,.47-.22-.14-.23-.71-.66-.36-.39,.33-.32,.81-.18,1.26,.12,.4,.93,.84,.11,1.18-.76,.32-.88-.39-1.11-.97-.78-1.91-.32-3.9-.5-5.85-.05-.51,.39-1.4-.5-1.42-.75-.02-1.02,.78-1.04,1.49-.07,2.27-.35,4.54,.1,7.07-1.19-.74-1.93-1.59-1.99-2.8-.06-1.14-.2-2.07-1.26-2.8-.67-.47-.48-1.49-.66-2.27-.1-.42,.02-1.03-.52-1.15-.55-.11-.7,.43-.87,.85-.08,.2-.26,.52-.38,.51-1.92-.07-1.63,1.46-2.09,2.66-.07-2.76-1.88-4.89-2.35-7.87-.41,1.22-.23,2.06-.17,2.92,.11,1.62,.65,3.27-.81,4.71-.64,.63-.37,1.73-.43,2.62-.03,.4-.05,.85-.56,.97-.49,.11-.62-.32-.79-.61-1.17-2.01-2.63-3.87-2.56-6.41,.03-1,.56-1.68,.89-2.5,1.2-3.03,2.57-5.99,3.4-9.15,.23-.89,.43-1.33,1.3-.32,.95,1.11,2.48,1,3.81,1.19,2.04,.29,4.02,.7,5.99,1.37,2.08,.71,4.31,.96,6.45,1.54,1.67,.45,3.21,1.37,5.06,1.1,.71-.11,1.43-.19,2.15-.29,1.14-.16,2.01,.35,1.97,1.5-.1,3.15,1.17,6.14,.94,9.29-.02,.27,.01,.54,0,.81Zm6.28,4.18c-.55,.08-.84-.26-.99-.72-.21-.63-.57-1.34-.56-1.89,.04-1.89-.68-3.37-1.85-4.76-.24-.29-.4-.73-.41-1.11-.03-.77,.17-1.63,.83-1.98,.62-.33,.7,.66,1.13,.92,2.56,1.5,2.25,4.04,2.34,6.43,0,.72,0,1.44,0,2.16,0,.39,.08,.86-.5,.95Zm2.41-2.1c-1.03-1.15-.88-2.03-.51-3.13,.77,.99,.43,1.9,.51,3.13Zm49,6.21c-.66-1.24-1.83-2.32-1.17-4.19,1,1.37,1.35,2.7,1.17,4.19Zm32.78-6.96c0,.31,0,.63,0,.94-.02,.48,.11,1.12-.5,1.25-.57,.12-.97-.32-1.24-.83-.48-.93-.07-3.94,.68-4.61,.42-.38,.65-.11,.74,.31,.19,.97,.4,1.94,.33,2.94Z"/><path class="am" d="M243.05,562.35s.05-.08,.04-.11c0-.03-.06-.04-.1-.05-.02,.04-.05,.08-.04,.1,0,.03,.06,.04,.1,.05Z"/></g><path id="i" class="am" d="M192.64,522.85c-1.2-2.99-1.32-4.03-2.85-6.15-1.53-2.12-1.29-2.78-1.29-2.78,0,0,2.09-3.14,1.64-4.21,0,0-2.07,.5-4.7,2.27-.61-1.63-2.79-2.16-4.52-2.3l.4,.62s-1.37-.4-2.35-.35c0,0,.47,.33,.66,.49,0,0-2-.19-3.45,.16,0,0,.3,.03,.68,.27,0,0-1.94-.03-3.06,.68,0,0,.6-.05,.77,.16,0,0-1.48,.05-2.71,1.07,0,0,.52-.08,.82-.03,0,0-2.54,.52-3.78,2.13,0,0,.68-.22,.79-.16,0,0-1.77,.85-2.93,1.75,0,0,.69-.14,.98-.14,0,0-.57,.44-1.15,1.18-.9-.74-1.84-1.41-2.86-1.99-.06-.42-.03-.53-.03-.55-.01,.02-.1,.09-.48-.2-.88-.66-2.52-.46-2.52-.46,0,0-.89-1.05-2.05-1.78-1.17-.73-4.31-.87-4.89-2.25-.48-1.14,.06-6.01,.26-7.63-.12,1.02-.25,3.36,1.48,4.44,0,0,.4-.88,.47-2.36,.98,1.24,1.86,1.03,1.86,1.03-.31-2.85-1.82-4.44-2.51-5.03-.15-.43-.34-.88-.56-1.34,0,0,.57-.99-.67-2.27l-.82-1.53,1.32,.17s.89-2.6,.92-4.7c1.93,.09,3.84,.03,4.96-.48,2.27-1.04-2.32-1.06-4.03-1.47-.33-.08-.59-.34-.68-.67l-.35-1.31c-2.02-.68-4.42-.63-6.54-.13-.1,.34-.15,.64-.16,.9-.01,.37-.28,.69-.65,.75-.98,.16-2.72,.45-3.91,.71-1.74,.38,.66,1.2,4.75,1.13,.13,.67,.29,1.59,.29,1.83,0,.38-.44,.82-.44,.82,0,0-.71,.77-1.31,1.37s-4.49,4.21-4.92,5.64c-.44,1.42-.92,12.37-.92,12.37,0,0-1.26,.1-1.37,.71-.11,.6,0,2.08,0,2.08,0,0-1.37,2.3-1.26,2.74s.55,.91,.55,.91c0,0-3.52,2.51-4.18,3.01-.66,.5-3.55-.51-5.46,1.31-1.9,1.83-2.89,3.07-2.89,3.07,0,0-2.41-1.9-5.66-1.68-4.35,.3-6.51,4.66-7.49,9.52-1.98,9.91-7.96,6.55-7.96,6.55,0,0,1.54,4.14,8.32,3.56,3.24-.28,6.58-3.01,7.68-6.73,.4,4.3,1.5,5.09,.98,7.71-.58,2.89-3.8,12.1-1.91,14.17,.93,1.02,.29,5.4,2.47,7.26h4.18s-1.67-3.68-2.66-5.75c-.99-2.07-.57-1.48-.32-3.8,.24-2.31,2.55-7.92,3.54-9.49,.99-1.57,2.07-2.4,2.07-2.4l.17,2.03s.13,.91,.08,1.7c-.01,.19-.04,.37-.07,.53h0c-.03,.16-.07,.33-.11,.49-.83,3.16-4.01,7.04-4.12,8.24-.17,1.9,1.47,3.33,.91,5.54s.34,2.89,.34,2.89h5.03s-1.24-2.56-1.9-3.89c-.66-1.32-.33-4.02,.5-5.69,.4-.82,4.89-4.57,5.54-6.7h0c.4-.8,.57-1.74,.99-2.51,1.41-2.56,1.61-3.14,4.03-3.06,2.42,.08,10.38,5.62,15.86,4.71,5.48-.91,3.83,4.5,5.98,6.09,2.15,1.59,4.38,5.15,4.46,6.64,.08,1.49,0,2.89,0,2.89h5.7s.25-1.07-1.49-2.98c-1.74-1.9-3.14-4.55-4.22-8.02-1.07-3.47,.17-5.57,1.65-7.87,.49-.75,.95-1.5,1.34-2.22,2.56,.29,6.25-.42,7.1,2.21,1.2,3.72,1.64,5.76,1.64,5.76-1.28,.88-5.03,1.9-5.03,1.9-.98,3.06,1.31,3.87,1.31,3.87,0,0,9.91-3.1,8.06-6.35-3.65-6.41-3.74-9.69-5.05-11-.83-.83-3.68-1.34-5.68-1.61,1.09-1.12,2.92-2.66,4.6-4.3,.76-.83,1.24-2.17,1.54-3.6,1.3,.73,2.73,1.16,4.29,.95,2.25-.3,4.09-1.6,5.74-3.09,.19,.56,.43,1.2,1.13,1.68,1.75,1.19,4.53,1.28,4.84-1.78,.31-3.06-1.54-2.93-2.74-5.93Zm-38.57-20.58s0,.07-.01,.11c0-.04,0-.08,.01-.11Zm8.53,16.09s1.61-.33,1.25-2.18c.86,.52,1.67,1.1,2.44,1.74-.47,.68-.9,1.54-.98,2.5,0,.08-.01,.15-.01,.22l-2.7-2.29Zm21.66,13c-1.24,.29-2.5,.19-3.68-.28-.38-.15-.75-.34-1.1-.55,.37-2.04,.4-4.13,.39-4.96l1.66-.95s3.7,3.48,6.05,3.03c1.1-.21,1.44,.16,1.66,.73-1.45,1.33-3.03,2.53-4.98,2.99Z"/><path class="am" d="M277.35,471.07s.01-.1,.02-.14c0-.04,.01-.08,.01-.12,0-.08,.02-.17,.03-.25v-.08c.01-.06,.02-.13,.02-.19v-.08c.01-.06,.01-.13,.02-.19v-.07c.01-.18,.01-.35,.01-.53v-.03c0-.08,0-.15,0-.23v-.02c0-.23,0-.45,0-.66,0-1.91-1.19-3.89-3.71-3.89h-.01c-.44-.06-.93-.02-1.48,.06-1.4,.07-2.86,.93-3.05,.96-.19-.03-1.65-.89-3.05-.96-.54-.08-1.03-.13-1.48-.06h-.01c-2.52,0-3.71,1.97-3.71,3.89,0,.21,0,.43,.01,.66v.02c0,.08,0,.15,0,.23v.03c0,.17,0,.35,0,.53v.07c0,.06,.01,.13,.01,.19v.08c.01,.06,.02,.13,.02,.19v.08c.02,.08,.02,.17,.03,.25,0,.04,0,.08,.01,.12,0,.05,.01,.1,.02,.14,0,.05,.01,.1,.02,.14l.02,.11s0,.07,.02,.1c.57,5.64,2.53,13.09,4.65,13.09h0s.01,0,.02,0c.02,0,.03,0,.05,0h.03s.03,0,.05,0h.02s.04-.01,.06-.02h.02s.05-.02,.07-.03h0s.04-.02,.06-.04h.02s.03-.03,.04-.05l.02-.02s.03-.02,.04-.04l.02-.02s.03-.04,.05-.06h0s.04-.06,.06-.09l.02-.03s.03-.04,.04-.06h0v-.03c.05-.07,.09-.14,.12-.22,.17-.41,.24-.85,.2-1.28-.02-.21-.03-.42-.03-.64,0-2.42,1.08-4.39,2.42-4.47,1.35,.08,2.42,2.05,2.42,4.47,0,.22,0,.43-.03,.64-.04,.44,.03,.88,.2,1.28,.04,.08,.07,.16,.11,.22v.02h.02s.03,.06,.04,.08l.02,.03s.04,.05,.06,.08h0s.03,.05,.05,.07l.02,.02s.03,.03,.04,.04l.02,.02s.03,.02,.04,.03h.02s.04,.04,.06,.05h0s.05,.02,.07,.03h.02s.04,.01,.06,.02h.02s.03,0,.05,0h.03s.03,0,.05,0c0,0,.01,0,.02,0h0c2.12,0,4.08-7.45,4.65-13.09,0-.03,.01-.07,.02-.1l.02-.11s.01-.1,.02-.14Z"/><rect class="am" x="268.26" y="473.01" width="2.02" height="18.87"/></g><path id="j" class="ax" d="M541.02,738.74v-111.69c-181.09-6.93-362.96,6.63-541.02,40.34v71.36H541.02Z"/><path id="k" class="bc" d="M541.02,765.08v-48.96c-34.23-2.61-68.49-4.85-102.76-6.7-44.78-2.42-89.6-4.2-134.43-5.32-45.05-1.13-90.11-1.61-135.18-1.43-44.85,.18-89.69,1-134.51,2.47-11.26,.37-22.52,.78-33.78,1.23-.12,0-.24,0-.36,.01v58.71H541.02Z"/><path id="l" class="af" d="M541.12,718.09v-23.63c-4.16-.48-8.34-.82-12.49-1.15-7.39-.59-16.39-.39-20.15,5.98-3.73,6.32,.3,14.96-3.03,21.49-2.91,5.72-10.44,7.56-16.81,6.59-6.37-.97-12.22-4.02-18.48-5.52-6.26-1.5-13.72-1.06-17.98,3.75-5.66,6.38-3.87,18.24-11.44,22.18-8.98,4.68-17.99-7.58-28.1-8.28-11.69-.81-18.38,13.24-28.9,18.38-6.1,2.98-13.23,2.77-20,2.3-6.78-.48-13.79-1.13-20.2,1.1-3.05,1.06-5.32,2.36-6.95,3.82h204.55v-46.99Z"/><path id="m" class="af" d="M143.99,751.05c-5.52-4.63-8.36-13.01-15.35-14.69-13.33-3.21-22.15,21.25-35.17,16.96-11.91-3.93-7.41-25.97-19.05-30.64-7.1-2.85-14.38,3.18-21.78,5.09-9.5,2.46-19.4-2.12-27.42-7.78-8.02-5.67-15.37-12.65-24.58-16.05-.21-.08-.42-.15-.63-.22v61.44H204.09c-.81-2.6-2.2-4.99-4.26-6.94-14.16-13.39-40.92,5.37-55.84-7.15Z"/><g id="n"><path id="o" class="af" d="M368.09,333.26l-2.07-3.97c-1.45-2.77-4.31-4.5-7.43-4.5h0c0,5.25,4.26,9.5,9.5,9.5s9.5-4.26,9.5-9.5h0c-3.12,0-5.99,1.73-7.43,4.5l-2.07,3.97Z"/><path id="p" class="af" d="M333.57,378.59l-3.05-1.89c-2.13-1.32-4.81-1.34-6.96-.07h0c2.14,3.62,6.82,4.82,10.44,2.67,3.62-2.14,4.82-6.82,2.67-10.44h0c-2.15,1.28-3.42,3.64-3.29,6.14l.19,3.58Z"/><path id="q" class="af" d="M350.53,387.79l-1.59-2.38c-1.11-1.66-3.06-2.57-5.04-2.36h0c.36,3.34,3.37,5.76,6.71,5.4s5.76-3.37,5.4-6.71h0c-1.99,.22-3.69,1.52-4.42,3.38l-1.05,2.67Z"/><path id="r" class="af" d="M257.16,375.91l2.28,2.02c1.59,1.41,3.83,1.82,5.81,1.06h0c-1.27-3.34-5.01-5.01-8.34-3.74-3.34,1.27-5.01,5.01-3.74,8.34h0c1.98-.76,3.38-2.55,3.63-4.66l.36-3.02Z"/><path id="s" class="af" d="M445.65,430.15l.63,2.53c.44,1.76,1.82,3.13,3.58,3.56h0c.72-2.97-1.1-5.95-4.07-6.67-2.97-.72-5.95,1.1-6.67,4.07h0c1.76,.43,3.62-.16,4.82-1.53l1.71-1.96Z"/></g><g/><g class="ak"><text class="ar" transform="translate(45.52 727.64)"><tspan class="bd"><tspan class="ah" x="0" y="0">J</tspan><tspan x="3.83" y="0">AMIE </tspan></tspan><tspan class="ao"><tspan class="as" x="1.57" y="13.5">F</tspan><tspan class="bf" x="7.37" y="13.5">O</tspan><tspan x="15.62" y="13.5">XX</tspan></tspan></text></g><g class="ak"><text class="ar" transform="translate(119.43 727.64)"><tspan class="bd"><tspan x="0" y="0">L</tspan><tspan class="ah" x="5.38" y="0">E</tspan><tspan x="11.48" y="0">ONARDO</tspan></tspan><tspan class="ao"><tspan x="3.03" y="13.5">DICAPRIO</tspan></tspan></text></g><g class="ak"><text class="ar" transform="translate(220.49 727.64)"><tspan class="bd"><tspan x="0" y="0">CRI</tspan><tspan class="aw" x="16.86" y="0">S</tspan><tspan class="be" x="22.61" y="0">T</tspan><tspan x="28.45" y="0">OPH</tspan></tspan><tspan class="ao"><tspan class="at" x="7.75" y="13.5">W</tspan><tspan x="18.8" y="13.5">A</tspan><tspan class="an" x="26.59" y="13.5">L</tspan><tspan x="31.08" y="13.5">TZ</tspan></tspan></text></g><g class="ak"><text class="ar" transform="translate(332.14 727.64)"><tspan class="bd"><tspan x="0" y="0">KER</tspan><tspan class="aj" x="19.61" y="0">R</tspan><tspan x="26.29" y="0">Y</tspan></tspan><tspan class="ao"><tspan class="at" x="-21.95" y="13.5">W</tspan><tspan x="-10.9" y="13.5">ASHIN</tspan><tspan class="aw" x="22.96" y="13.5">G</tspan><tspan class="al" x="31.09" y="13.5">T</tspan><tspan x="37.11" y="13.5">ON</tspan></tspan></text></g><g class="ak"><text class="ar" transform="translate(447.04 727.64)"><tspan class="bd"><tspan class="aw" x="0" y="0">S</tspan><tspan x="5.75" y="0">AMUEL</tspan></tspan><tspan class="ao"><tspan x="-8.33" y="13.5">L. </tspan><tspan class="ae" x="3.44" y="13.5">J</tspan><tspan class="au" x="7.41" y="13.5">A</tspan><tspan x="15.05" y="13.5">C</tspan><tspan class="av" x="21.85" y="13.5">K</tspan><tspan x="28.79" y="13.5">SON</tspan></tspan></text></g><g class="ak"><text class="ap" transform="translate(343.89 254.35)"><tspan class="ba" x="0" y="0">B</tspan><tspan x="8.24" y="0">y Que</tspan><tspan class="bb" x="44.86" y="0">n</tspan><tspan x="52.82" y="0">tin </tspan><tspan class="ag" x="73.12" y="0">T</tspan><tspan x="79.43" y="0">a</tspan><tspan class="ai" x="86.82" y="0">r</tspan><tspan x="91.88" y="0">a</tspan><tspan class="bb" x="99.26" y="0">n</tspan><tspan x="107.22" y="0">tino</tspan></text></g><g><path id="t" class="af" d="M295.48,202.62c-1.48-1.56-1.08-3.66-1.51-5.5-1.12-4.84-1.96-9.74-2.93-14.61-.83-4.12-1.69-8.24-2.56-12.36-.14-.65-.37-1.28-.8-1.87,0,2.63-.14,5.27,.05,7.89,.13,1.84-.6,2.76-2.15,3.55-2.39,1.22-2.32,1.28-.22,2.93,2.02,1.59,3,3.5,1.91,7.19-.41,1.39-.5,2.85-.33,4.29,.81,7.26,1.52,8.13-.73,8.12-19.94-.04-39.88-.04-59.81,0-1.45,0-2.07-.45-1.85-1.9,.11-.73-.23-1.38-.36-2.06-.44-2.46-.99-4.91,1.44-6.84,.97-.77,.22-1.58-.66-1.59-1.19-.02-1.15-.63-1.19-1.45-.09-1.79-.28-3.58-.34-5.37-.03-.76-.32-.99-1.04-1.03-3.49-.2-6.94,.64-10.43,.42-1.22-.08-1.23,1.2-1.34,1.81-.54,3.05-.85,6.14-1.26,9.21-.38,2.83-1.09,5.61-1.27,8.48-.06,.95-.74,1.38-1.87,1.37-9.56-.08-19.11-.07-28.67-.07-.82,0-1.63,.06-2.44,.13-1.06,.09-1.43-.09-1.05-1.11,2.91-7.79,5.09-15.81,7.71-23.69,1.3-3.92,2.21-8.02,4.22-11.7,.35-.64,.68-1.27-.1-1.86-1.43-1.08-1.38-2.7-.99-4.07,1.13-3.98,1.2-8.1,1.86-12.14,1.02-6.33,1.13-12.77,2.24-19.11,.34-1.92,.41-3.95,.48-5.93,.08-2.48,.32-4.94,.8-7.36,.56-2.83,.51-5.71,.69-8.56,.11-1.66,.5-3.27,.6-4.92,.04-.66,.14-1.82,1.57-1.75,1.63,.08,1.09-.85,.43-1.52-1.24-1.28-2.68-2.38-2-4.74,1.86-6.49,2.21-13.29,1.11-19.94-.27-1.64,.09-1.78,.96-1.78,9.81,.01,19.61,.03,29.42-.01,1.29,0,1.51,.87,1.98,1.69,.56,.96,.99,2.52,2.09,2.46,.92-.05,.95-1.66,1.15-2.63,.23-1.15,.76-1.56,1.95-1.53,2.66,.08,5.33,.04,7.99,.02,.87,0,1.56,.1,1.57,1.18-.71,.53-.18,.68,.27,.85,.03,3.5-.12,7.01,.13,10.49,.49,6.93,.38,13.9,.89,20.8,.4,5.43,1.48,10.87,2.42,16.29,.86,4.98,1.74,9.96,2.53,14.96,.63,3.99,1.03,8.07,2.17,11.92,.78,2.65,.21,4.34-1.83,5.7-.96,.64-.82,1.1-.07,1.43,4.77,2.1,4.65,6.9,5.78,10.92,1.27,4.49,2.24,9.05,3.06,13.64,.87,4.81,1.88,9.55,3.29,14.21,.15,.51,.14,1.2,.76,1.15,.78-.06,.4-.84,.38-1.26-.12-3.27,.06-6.53-.15-9.82-.12-1.88,.2-3.94,.19-5.91-.05-5.43,.05-10.88-.43-16.27-.45-5-.09-10-.67-14.99-.69-5.93-.5-11.94-.93-17.88-.35-4.77,.31-9.61-.9-14.32-.22-.87,.47-1.54,1.08-2.06,2.25-1.89,2.01-1.89-.71-4.45-.73-5.68-.1-11.43-.63-17.08-.44-4.81,.31-9.6-.26-14.38-.03-.26,0-.52-.02-.78q-.2-3.2,3-3.26c.84-.01,1.69-.04,2.53-.05,2.45-.02,4.96-.23,6.74,2.46-.15-2.27,.99-2.3,2.46-2.34,5.63-.19,11.24,.48,16.86,.42,1.91-.02,1.5,1.68,1.44,2.44-.16,2.22,1.58,4.27,.51,6.51,2,4.45,2.21,9.34,3.39,14,1.27,5.02,2.37,10.1,3.63,15.13,.69,2.77,1.64,5.47,2.56,8.48,1.71-2.51,.76-3.96-.65-8.83,2.9-3.58,1.31-8.61,3.58-12.61,.74-1.31,.48-2.03-1.08-1.76-2.26,.38-2.58-.61-2.53-2.62,.14-6.28,.1-12.57,.01-18.85-.02-1.55,.28-2.08,1.98-2.08,8.83-.01,17.67-.12,26.5-.33,1.7-.04,2.17,.03,2.05,2.03-.37,6.07-.34,12.16-.48,18.24-.12,5.18-.16,10.37-.41,15.54-.14,2.92,.15,5.82,.04,8.73-.34,8.61-.66,17.23-.9,25.85-.17,5.97,.15,11.94-.09,17.9-.08,1.95-.18,3.86-1.46,5.42-.65,.79-.02,1.14,.4,1.34,3.06,1.53,3.01,4.22,2.95,7.08-.13,7.19-.13,14.38-.13,21.57,0,4.25,.05,4.22-4.04,4.71-2.63,.32-5.27,.22-7.89,.44-6.91,.58-13.81-.07-20.71,.19-.07-.52-.44-.63-.88-.63Zm-79.05-74.6c-.12,3.65-.35,7.16-.85,10.65-.55,3.89-1.03,7.79-1.54,11.68-.14,1.08,.12,1.76,1.41,1.71,1.56-.06,3.12-.03,4.68-.03,1.04,0,1.48-.16,1.14-1.48-.64-2.5-.99-5.08-1.4-7.63-.69-4.31-1.27-8.63-2.04-12.92-.11-.64-.07-1.73-1.4-1.98Z"/><path id="u" class="af" d="M334.22,124.49c.08-4.27-.06-8.56,.29-12.81,.47-5.8,.37-11.72,1.97-17.34,1.58-5.56,5.16-9.96,9.53-13.7,2.18-1.87,4.62-3.38,7.08-4.86,1.3-.78,2.37-1.21,3.49,.51,1.35,2.07,2.5,2.22,3.72,.41,2.47-3.66,6.03-2.82,9.4-2.62,2.05,.12,4.08,.3,6.14,.33,1.45,.02,2.86,.82,4.33,1.06,3.18,.52,6.4,1.31,9.23,2.6,3,1.37,5.67,3.71,7.88,6.34,2.37,2.82,4.67,5.68,6.31,9,.92,1.87,1.54,3.85,2.27,5.8,.65,1.73-.41,2.21-1.49,2.69-3.68,1.63-7.41,3.17-11.11,4.75-4.77,2.04-9.55,4.07-14.31,6.14-1.59,.69-2.47,.63-2.84-1.41-.41-2.22-1.45-4.28-2.78-6.14-.96-1.34-2.77-2.19-5.65-1.33-1.53,.46-1.92,1.89-2.09,3.51-1.1,10.54-.71,21.12-.92,31.69-.05,2.42-.61,4.85-.56,7.26,.13,5.9,.3,11.81,.81,17.69,.25,2.86,.19,5.81,1.15,8.6,.71,2.05,2.31,3.21,4.31,3.19,2.26-.03,3.83-1.25,4.6-3.38,.85-2.35,1.35-4.75,1.14-7.25-.11-1.32,.37-2.52,.43-3.8,.04-.97-.21-1.49-1.26-1.42-.19,.01-.39-.02-.58-.03-1.41-.03-3.41,.5-4.1-.21-.95-.99-.21-2.95-.31-4.48-.13-1.91,.13-3.82-.33-5.75-.37-1.58,.12-3.14,1.65-4.16,.59-.39,1.09-1.03,.95-1.75-.16-.75-.96-.42-1.47-.44-.82-.03-1.17-.42-1.23-1.18-.26-3.02,.32-6.07-.34-9.08-.16-.7,.44-.64,.88-.64,6.95,0,13.9-.16,20.85,.07,3.46,.11,6.91-.01,10.36-.08,1.13-.02,1.8,.14,1.83,1.54,.17,6.98,.64,13.96,.56,20.94-.04,3.39,.56,6.75,.17,10.12-.11,.95,.42,1.72,.42,2.62,0,2.09-1.28,3.44-2.77,4.56-.68,.51-.97,.91-.34,1.42,3.27,2.68,2.31,6.46,2.45,9.84,.21,5.36,.34,10.74-.12,16.11-.02,.19,0,.39,0,.58-.04,3.28-.07,3.03-3.19,3.51-4.85,.74-9.82,.14-14.62,1.44-.99,.27-1.93,.15-1.71-1.39,.15-1.01-.05-2.08,.05-3.1,.17-1.73-.71-1.5-1.65-.88-1.66,1.11-3.19,2.42-4.9,3.46-3.12,1.9-6.49,3.13-10.18,3.5-6.91,.69-13.37-.67-18.97-4.78-7.18-5.27-12.06-12.18-13.83-21.07-.86-4.34-1.24-8.71-1.19-13.13,.02-1.42,.4-2.37,2.02-2.7,1.02-.21,2.01-.88,.45-1.96-1.75-1.22-1.91-3.1-1.9-4.99,.01-8.09,.06-16.19,.08-24.28,0-2.53-.04-5.05-.06-7.58,.34-.51,.34-1.02,0-1.53Z"/><path id="v" class="af" d="M69.03,74.35c4.96-.55,9.94-.72,14.9-.39,7.72,.52,15.44,1.19,22.8,3.89,2.84,1.04,5.32,2.8,7.66,4.65,4.09,3.24,7.7,7,10.61,11.35,2.33,3.48,2.44,4.34-.41,6.88-.85,.76-1.13,1.35,.39,1.75,5.03,1.31,5.81,5.53,6.36,9.72,.66,4.93,1.04,9.89,1.6,14.83,.88,7.85,.63,15.73,.31,23.59-.14,3.58-.9,7.14-1.36,10.71-.41,3.21-.99,6.34-1.9,9.41-1.8,6.1-4.65,11.66-8.52,16.78-4.72,6.22-11.04,10.13-17.99,13.21-3.06,1.36-6.17,2.61-9.38,3.62-2.78,.88-3.22,.97-5.04-1.35-.36-.45-.65-.95-1.03-1.38-.68-.78-1.31-.73-1.8,.22-.2,.39-.44,.78-.55,1.19-.56,2.23-2.25,2.09-3.96,1.89-1.96-.23-3.91-.57-5.87-.71-2.76-.21-5.52-.32-8.29-.39-1.12-.03-1.17-.66-1.29-1.5-.37-2.66-.18-5.32-.22-7.98-.17-11.52-.21-23.05-.65-34.57-.15-3.93-.02-7.86-.33-11.77-.76-9.62-.12-19.25-.39-28.87-.04-1.27,.44-2.1,1.4-2.77,1.59-1.11,1.61-2.07-.16-2.63-1.12-.35-1.21-.91-1.21-1.8,0-11.86,.04-23.71-.11-35.57-.02-1.84,1.16-1.68,2.09-1.96,.71-.22,1.55-.04,2.32-.04Zm23.76,63.69h.22c0,9.39,0,18.79,.01,28.18,0,.96-1,2.36,1.24,2.45,3.72-2.73,7.79-5.13,9.52-9.72,.09-.25,.5-.57,.72-.54,1.79,.21,1.55-.96,1.54-2.08-.01-1.66,.19-3.31,.35-4.96,.54-5.54,.39-11.12,.29-16.68-.08-4.74-.83-9.47-2.23-14.03-1.68-5.44-4.16-10.3-9.8-12.8-1.51-.67-1.91-.51-1.9,1.22,.07,9.65,.03,19.3,.03,28.96Z"/><path id="w" class="af" d="M410.49,173.62c-.9-22.12-.36-43.92-.33-65.72,0-1.77,.2-3.32,2.28-3.86,.68-.18,1.5-.63,1.46-1.31-.04-.76-.81-1.11-1.66-1.28-1.29-.26-1.89-2.33-1.17-4.2,1.04-2.69,2.06-5.41,3.39-7.96,4.32-8.33,11.28-13.31,20.4-15.26,10.02-2.14,19.08-.08,27.31,6.13,6.43,4.85,9.03,11.73,11.05,19.01,1.31,4.7,1.71,9.57,2.32,14.39,1.54,12.09,.49,24.23,.76,36.34,.11,4.86,.02,9.72,.01,14.58,0,1.41-.53,2.61-1.65,3.51-.77,.63-1.21,1.09,.05,1.8,2.23,1.26,1.14,3.35,.79,5-1.21,5.72-3.3,11.1-7.01,15.72-3.95,4.91-8.81,8.54-14.62,11.13-4.46,1.99-8.93,2.92-13.8,2.99-8.9,.11-16.46-2.83-22.55-9.21-3.39-3.55-5.09-8.1-6.22-12.82-.73-3.05-1.11-6.16-.83-8.98Zm37.86-38.25c-.08-.64-.23-1.27,.38-1.78,1.24-1.03,2.47-2.08,3.69-3.12-.61-.98-1.59-1.51-2.51-2.04-1.18-.68-1.69-1.53-1.66-2.92,.06-4.12,.24-8.25-.37-12.34-.49-3.3-1.05-6.63-3.51-9.19-1.06-1.1-2.55-1.86-3.85-.95-1.35,.94-2.4,2.34-3.16,3.94-1.38,2.89-1.22,5.92-1.15,8.95,.25,11.59,.13,23.17,0,34.76-.01,1.16-.04,2.6-.93,3.13-2.15,1.29-.6,2.02,.33,2.42,2.17,.94,2.58,2.52,2.5,4.65-.11,2.97-.1,5.96,.07,8.93,.2,3.53,2.91,5.34,5.86,4,2.41-1.1,3.67-3.28,3.81-5.71,.29-4.94,.2-9.91,.25-14.87,.05-5.69,.09-11.38,.13-17.08,.65-.15,.67-.41,.15-.78Z"/><path id="x" class="af" d="M156,73.27c2.73-.34,5.19-.41,6.53,2.36,.49,1.02,1.22,.68,1.78-.08,2.53-3.4,6.22-2.81,9.69-2.65,1.51,.07,2.63,1.06,2.83,2.73,.06,.51,.17,1.03,.14,1.53-.28,5.17,.28,10.31,.51,15.46,.16,3.54-.03,7.1,.32,10.61,.97,9.83,.96,19.7,.85,29.55-.05,4.48-.27,8.99-.32,13.46-.07,6.26-.74,12.49-.66,18.75,.03,2.07-.23,4.21-.31,6.32-.07,2.01-1.88,2.53-3.22,3.08-1.73,.71-1.5,.98-.25,2.01,2.2,1.82,2.32,3.1,1.03,5.6-3.52,6.81-8.57,12.32-15.18,16.07-4.38,2.49-9.23,4.25-14.45,4.64-2.12,.16-4.22,.24-6.34,.31-1.02,.03-1.52-.33-1.71-1.34-1.43-7.53-3.55-14.9-5.31-22.35-.3-1.29-.24-1.78,1.25-2.19,4.54-1.24,8.74-3.29,12.35-6.39,2.62-2.25,3.95-5.27,4.54-8.55,1.59-8.78,2.17-17.65,1.86-26.57-.2-5.59-.32-11.19-.74-16.76-.11-1.46-.1-3.02-.67-4.48-.59-1.51,1.3-2.86,.89-4.03-.44-1.27-1.78-2.24-1.71-3.84,.21-5.08-.77-10.08-.88-15.16-.09-4.08-.29-8.19-.71-12.26-.13-1.29-.27-2.61-.67-3.9-.34-1.11-.34-2.3,1.59-2.07,2.3,.27,4.68-.13,6.97,.14Z"/><g><path class="am" d="M315.73,232.21c-1.68,0-3.35,.02-5.03-.02-.31,0-.85,.42-.89-.49-.04-.98-.31-2.7,.19-2.85,2.03-.63,1.24-3.02,1.19-4.62-.05-1.64-.19-3.3-.18-4.96,0-.9-.11-1.58-.79-1.49-.95,.12-.68-1.17-.62-2.61-.23-1.57,.05-2.08,.74-2.08,3.39,.02,6.79,.02,10.18,.01,.51,0,.97,.38,.99,1.11,.03,1.23,.76,1.74,1.09,1.79,1.06,.15,.94,1.15,.93,2.23-.01,3.04,0,6.08,0,9.12,0,3.16-1.14,4.91-3.15,4.9-.78,0-1.55-.03-2.33-.04-.78,0-1.55,0-2.33,0Zm-1.29-14.92c.6,1.78-.09,2.91,.63,4.52,.06,.14,.09,.32,.08,.49-.63,6.97-1.12,6.82,2.13,6.01,.23-.06,.46-.04,.68,.06,1.43,.64,2.13,.39,1.91-.98-.47-2.92-.18-5.89-.24-8.83-.02-.88-.14-1.29-.75-1.27-1.43,.05-2.85,.02-4.44,.02Z"/><path class="am" d="M107.04,214.98c.15-.27-.36-.88,.32-.99,2.87-.48,3.01-.12,3.3,4.46,.25,3.97-.16,7.88-.12,11.73,.04,3.44-1.03,2.26-1.93,2.35-1.28,.13-2.25-.99-3.21-2.18-1.29-1.59-2.41-3.46-3.57-5.27-.19-.3-.36-.89-.67-.6-.2,.19-.36,.73-.36,1.11,0,1.15-.16,2.33,.1,3.45,.38,1.66-.2,2.48-1.05,3.02-.22,.14-.48,.08-.73,.09-1.76,.08-1.72,.07-1.79-2.64-.11-4.28-.14-8.55-.03-12.83,.01-.49-.15-.85-.19-1.27-.09-.89-.08-1.7,.76-1.55,.35,.07,.69-.03,1.06-.24,.56-.32,1.02-.18,1.48,.9,1.68,3.99,3.94,7.16,6.2,10.31,.21,.29,.41,.46,.65,.29,.28-.2,.24-.73,.17-1.02-.7-2.8-.29-5.73-.41-8.59,.17-.15,.19-.33,.04-.54Z"/><path class="am" d="M174.28,222.05c.12,3.38-.41,6.43-.24,9.52,.03,.53-.01,.83-.48,1.02-2.24,.93-3,.11-3.21-3.66q-.16-3-2.14-3.07c-.65-.02-1.31,.03-1.96-.08-1.19-.22-1.41,1.03-1.55,2.43-.03,.29,.11,.61,.12,.92,.1,2.4-.21,3.12-1.47,3.43-1.87,.46-1.96,.48-2.26-2.36-.53-5.03-.32-10.13-.34-15.21,0-.7,.24-1.06,.69-1.06,.86,0,1.75-.26,2.57,.04,1.07,.39,.6,2.17,.82,3.3,.19,1.02,.02,2.2,.13,3.28,.11,1.08,.67,2.11,2.67-.41,3,1.62,2.46,.23,2.47-.49,.02-1.55-.01-3.11,0-4.66,0-.4-.13-1.09,.3-1.07,1.23,.05,2.49-.51,3.67,.85-.24,2.55,.47,5.05,.19,7.28Z"/><path class="am" d="M260.6,223.45c.16,2.32-.26,5.23,.19,8.09,.1,.62-.16,.59-.4,.62-.96,.11-1.92-.18-2.88,.35-.35,.19-.65-.43-.94-.9-1.54-2.47-3.11-4.89-4.83-7.05-.26-.32-.5-.79-.84-.47-.28,.27-.12,.82-.13,1.24-.02,1.55,0,3.1,0,4.66-.01,1.95-.24,2.12-1.99,2.23-.99,.06-1.24-.52-1.24-2.03,.01-2.84-.75-5.54-.72-8.41,.02-2.3,.51-4.48,.55-6.79,.02-1.28,2.15-1.72,2.88-.57,1.32,2.08,2.54,4.3,3.73,6.57,.74,1.43,1.56,2.78,2.56,3.81,.55,.57,.84,.68,.88-.64,.07-2.01-.25-3.93-.36-5.9-.01-.18-.11-.35-.13-.53-.41-3.45,.13-3.93,2.37-3.62,1.45,.2,1.35,1.24,1.32,2.76-.04,2,0,4.01,0,6.58Z"/><path class="am" d="M290.37,213.81c.5,0,.7,.11,.74,1.02,.11,2.95,.14,2.95-1.7,2.95-2.01,0-4.01-.02-6.02,.01-.5,0-1.17-.4-1.17,1.16,0,1.3,.24,2.2,1.07,2.27,1.1,.1,2.21,.1,3.29-.12,.52-.11,1.22-.53,1.46,.05,.31,.77,.33,1.93,.31,2.92-.01,.67-.48,.7-.87,.69-1.27-.04-2.54-.06-3.81-.03-1.11,.02-1.39,.76-1.19,3.07,.14,1.66,.91,.72,1.4,.74,2.29,.09,4.58,.03,6.87,.18,.65,.04,.26,1.14,.33,1.74,.24,1.89-.14,2.51-1.76,2.25-2.5-.39-5.02-.48-7.53-.1-1.95,.3-2.41,.14-2.57-2.25-.38-5.49,.09-10.95-.03-16.41,3.73-.04,7.45-.07,11.18-.15Z"/><path class="am" d="M198.79,213.9c.89,.19,2.08-.52,3.06,.29,1.04,.87,.69,2.99,1.12,4.48,1.05,3.59,1.93,7.3,2.45,11.19,.13,.95,.47,2.1-.45,2.52-.86,.39-1.86,.77-2.26-1.04-.31-1.41-.9-1.61-1.67-1.59-1.23,.02-2.45,0-3.68,.03-.84,.02-1.64-.31-1.97,1.76-.24,1.5-1.47,1.06-2.3,.97-.71-.08-.32-1.11-.35-1.7-.16-4.06,1.06-7.65,1.6-11.47,.2-1.39,.47-2.77,.58-4.19,.08-1.04,.38-1.28,.96-1.26,.9,.04,1.8,0,2.9,0Zm.21,11.65c.33,0,.66-.04,.98,0,1.06,.16,1.42-.33,.97-2.06-.33-1.26-.46-2.65-.63-3.99-.28-2.16-1.35-1.31-2.09-1.25-.89,.07-.65,1.53-.5,2.12,.23,.9,.13,1.59-.04,2.35q-.64,2.84,1.32,2.83Z"/><path class="am" d="M134.84,213.12c1.99,0,3.99-.17,5.97,.35,.64,.17,1.12,.4,1.06,1.74-.08,1.74-.02,3.49-.02,5.24,0,.32,.03,.66-.02,.96-.11,.63-.6,.89-.75,.59-.66-1.27-2.04,.98-2.42-1.3-.05-.3,0-.64,0-.97,0-3.07,0-3.05-1.92-2.95-1.06,.05-2.13,.12-3.19,.01-.7-.07-.81,.35-.8,1.31,.03,3.17,.04,6.35,.01,9.52,0,.92,.22,1.04,.72,1.02,1.56-.05,3.11-.08,4.67,0,.82,.04,1.06-.44,1.03-1.7-.02-.93-.33-2.39,.16-2.72,.69-.48,1.6-.2,2.41-.23,.35-.02,.43,.35,.34,.76-.48,2.16-.17,4.36-.13,6.54,.02,1-.21,1.44-.78,1.24-3.29-1.14-6.62-.68-9.94-.72-1.54-.02-1.61-.09-1.66-2.57-.09-4.92,.27-9.83,.04-14.75-.05-1.13,.26-1.43,.94-1.4,1.43,.07,2.87,.02,4.3,.02Z"/><path class="am" d="M65.33,229.7c-.04-4.66,.04-9.32,.03-13.98,0-1.29,.44-1.66,1.08-1.42,.66,.25,1.84-.99,1.87,1.3,.05,3.34,.37,6.66,.3,10.02-.02,.98-.71,2.21-.11,2.82,.5,.51,1.34,.22,2.03,.22,1.35,0,3.06,.74,3.94-.29,.84-.99-.06-3.96,.3-5.88,.43-2.27-.18-4.48,.16-6.72,.18-1.14,.4-1.47,1.09-1.51,2.67-.15,2.75,.17,2.12,4.57,.15,4.25-.11,8.47-.21,12.7-.02,1.02-.2,1.28-.86,1.26-3.27-.07-6.55-.05-9.83-.05-.6,0-1.21,.1-1.81,.13-.57-1.04-.1-2.12-.11-3.17Z"/><path class="am" d="M228.24,223.7c.05,2.68-.08,5.2,.14,7.7,.09,.98-.13,1.66-.87,1.54-.08-.01-.16,0-.24,0-3.29,.1-3.32-.28-3.19-5.64,.08-3.35,.11-6.76-.09-10.13-.14-2.4,.32-3.28,1.87-3.28,.37,0,.73,0,1.1,0,.79,0,1.18,.55,1.19,1.86,.02,2.7,.28,5.4,.08,7.93Z"/></g></g><path class="af" d="M304.43,385.62c.42,0,.76,.11,.84,.6-.38,.18-.78,.29-1.08-.08-.18-.22,.01-.41,.25-.51Z"/><path class="af" d="M251.82,264.7c-.43-.16-.93-.3-.26-.8,.45,.15,.39,.46,.26,.8Z"/><path class="af" d="M408.04,396.38l-.18,.38-.32-.3,.49-.08Z"/><path class="af" d="M148.89,397.35c.23,.2,.2,.37-.06,.51l.06-.51Z"/><path class="af" d="M86.16,414.13l.48,.19c-.24,.14-.4,.07-.48-.19Z"/><g id="y"><path id="a`" class="am" d="M57.62,534.77c-.82-.02-1.51,.52-1.79,1.27-.13,.36-.17,.75-.17,1.13,0,.37,.09,.79-.15,1.1-.21,.27-.51,.41-.86,.47,.06-1.06,.08-2.12,.01-3.16-.14-2.12-.84-4.19-2.59-5.51-1.53-1.15-3.56-1.28-5.17-.19-1.76,1.19-2.51,3.19-2.75,5.23-.27,2.34-.12,4.77,.06,7.11,.06,.73,.12,1.46,.2,2.19-.76-.11-1.47-.48-1.97-1.08-.76-.91-.71-1.96-.73-3.08-.01-1.09-.22-2.17-1.01-2.97-.71-.72-1.77-.99-2.71-.54-.99,.47-1.48,1.48-1.66,2.52-.18,1.07-.29,2.21-.26,3.3,.06,2.14,.88,4.14,2.78,5.27,1.88,1.11,4.02,1.08,6.1,.77,.52,3.4,1.21,6.78,1.89,10.15,.08,.42,.35,.64,.66,.71,.29,.29,.74,.44,1.21,.24,.4-.17,1.01,.11,1.41,.17,.45,.08,.92,.11,1.38,.01,1.09-.24,1.64-1.05,1.76-2.11,.29-2.46,.4-4.96,.58-7.43,.18-2.51,.35-5.01,.51-7.52,.01-.17,.02-.34,.03-.51,1.41,.07,2.82-.41,3.8-1.49,1.09-1.2,1.54-3,1.06-4.57-.24-.76-.75-1.46-1.62-1.47Z"/><path id="aa" class="am" d="M28.07,533.26c-.89,0-1.57,.68-1.84,1.48-.3,.91,0,1.89-.14,2.82-.17,1.07-.69,2.01-1.45,2.71-.12-1.22-.24-2.45-.37-3.67l-.97-9.77c1.3-.15,2.56-.56,3.58-1.33,2.16-1.64,2.08-4.51,1.83-6.94-.15-1.41-.4-2.82-.79-4.19-.28-.98-.81-2.14-2-2.15-1.36,0-1.94,1.35-1.97,2.51-.04,1.47,.33,2.92,.46,4.38,.11,1.28,.06,2.77-.8,3.81-.19,.22-.4,.41-.64,.56l-.77-7.72c-.18-1.78-.35-3.56-.53-5.34-.12-1.19-.31-2.6-1.54-3.14-1.33-.59-2.64,.37-3.4,1.41-.83,1.16-1.21,2.56-1.37,3.96-.16,1.4-.1,2.82-.03,4.23,.07,1.42,.16,2.84,.27,4.26-1.47-.3-2.74-1.27-3.36-2.66-.39-.87-.4-1.72-.37-2.65,.03-.91-.33-1.87-1.3-2.1-2.12-.5-2.09,2.73-2.02,3.97,.1,1.87,.67,3.71,1.95,5.12,1.34,1.47,3.49,2.2,5.39,1.54,.25,2.54,.56,5.08,.93,7.61,.21,1.47,.45,2.93,.71,4.39-1.36,.18-2.76-.35-3.56-1.6-.6-.93-.61-1.81-.61-2.87,0-1.01-.36-2.18-1.43-2.53-.99-.32-1.99,.31-2.4,1.21-.45,1-.31,2.26-.26,3.32,.11,2.18,.71,4.51,2.68,5.74,1.92,1.2,4.17,.89,6.26,.3,.96,4.81,2.14,9.57,3.54,14.27,.22,.73,1.1,.71,1.47,.26,1.26-.06,2.2-1.23,2.4-2.43,.13-.73,.05-1.46-.02-2.19-.09-.89-.18-1.78-.27-2.67-.11-1.11-.22-2.22-.33-3.33,2.73-.82,4.85-3.17,5.25-6.12,.21-1.58,0-4.42-2.17-4.44Z"/></g><g id="ab"><path id="ac" class="am" d="M530.08,538.24c-.96-.02-1.78,.62-2.11,1.5-.16,.42-.2,.88-.2,1.33,0,.44,.11,.93-.18,1.3-.24,.32-.61,.48-1.01,.56,.07-1.25,.1-2.5,.02-3.73-.16-2.5-.99-4.95-3.06-6.5-1.81-1.35-4.2-1.51-6.1-.23-2.08,1.4-2.97,3.77-3.24,6.17-.31,2.76-.14,5.62,.07,8.39,.07,.86,.15,1.72,.24,2.58-.89-.13-1.74-.57-2.32-1.27-.89-1.08-.84-2.31-.86-3.63-.01-1.28-.26-2.56-1.2-3.5-.84-.85-2.09-1.17-3.2-.64-1.17,.56-1.75,1.75-1.96,2.98-.22,1.27-.34,2.6-.3,3.89,.07,2.53,1.03,4.89,3.28,6.21,2.22,1.31,4.74,1.28,7.2,.91,.62,4.01,1.42,8,2.23,11.97,.1,.49,.7,5.24,1.06,5.32,.35,.34,.87,.52,1.42,.28,.47-.2,1.19,.13,1.66,.2,.54,.09,1.09,.13,1.63,.01,1.28-.28,1.64-5.73,1.79-6.98,.34-2.91,.47-5.85,.68-8.77,.21-2.96,.42-5.92,.6-8.88,.01-.2,.03-.4,.04-.6,1.66,.08,3.33-.49,4.48-1.76,1.29-1.42,1.82-3.55,1.25-5.39-.28-.9-.89-1.72-1.91-1.74Z"/><path id="ad" class="am" d="M494.97,560.5c-.65,0-1.15,.49-1.34,1.08-.22,.67,0,1.38-.1,2.06-.12,.78-.51,1.46-1.06,1.97-.09-.89-.18-1.79-.27-2.68l-.71-7.13c.95-.11,1.87-.41,2.61-.97,1.58-1.19,1.52-3.29,1.33-5.06-.11-1.03-.29-2.06-.57-3.06-.2-.72-.59-1.56-1.46-1.57-.99,0-1.41,.98-1.44,1.83-.03,1.07,.24,2.13,.34,3.19,.08,.93,.05,2.02-.59,2.78-.14,.16-.29,.3-.47,.41l-.56-5.63c-.13-1.3-.26-2.6-.39-3.89-.09-.87-.23-1.89-1.13-2.29-.97-.43-1.93,.27-2.48,1.03-.61,.84-.88,1.87-1,2.88-.12,1.02-.07,2.06-.02,3.08,.05,1.04,.12,2.07,.2,3.11-1.07-.22-2-.92-2.45-1.94-.29-.63-.29-1.25-.27-1.93,.02-.66-.24-1.36-.95-1.53-1.54-.37-1.53,1.99-1.48,2.89,.08,1.36,.49,2.71,1.42,3.73,.97,1.07,2.54,1.6,3.93,1.13,.18,1.86,.41,3.71,.68,5.55,.16,1.07,.33,2.14,.52,3.2-.99,.13-2.01-.26-2.6-1.16-.44-.68-.44-1.32-.44-2.09,0-.74-.26-1.59-1.04-1.84-.72-.24-1.45,.23-1.75,.88-.33,.73-.23,1.65-.19,2.42,.08,1.59,.52,3.29,1.95,4.19,1.4,.87,3.04,.65,4.56,.22,.7,3.51,1.56,6.98,2.58,10.41,.16,.53,.8,.52,1.07,.19,.92-.04,1.6-.9,1.75-1.78,.09-.53,.04-1.06-.02-1.6-.06-.65-.13-1.3-.19-1.95-.08-.81-.16-1.62-.24-2.43,1.99-.6,3.54-2.31,3.83-4.46,.16-1.15,0-3.22-1.59-3.23Z"/></g></g></g></svg>