<?xml version="1.0" encoding="UTF-8"?><svg xmlns="http://www.w3.org/2000/svg" xmlns:xlink="http://www.w3.org/1999/xlink" viewBox="0 0 983.1 1191.46"><defs><style>.ae{fill:#722332;}.af{opacity:.5;}.ag{letter-spacing:-.01em;}.ah{fill:#c72736;}.ai{font-family:Calibri, Calibri;font-size:12px;}.ai,.aj,.ak{fill:#fbe3d0;}.al{letter-spacing:-.07em;}.am{font-family:Calibri-Bold, Calibri;}.an{letter-spacing:-.03em;}.ao{letter-spacing:-.03em;}.ap{letter-spacing:-.01em;}.aq{fill:#d5443b;}.ar{fill:url(#d);}.as{fill:none;}.at{letter-spacing:0em;}.au{letter-spacing:-.05em;}.ak{font-size:20px;}.av{fill:#dd5a1a;}.aw{letter-spacing:0em;}.ax{font-family:Calibri-Light, Calibri;}.ay{letter-spacing:-.03em;}.b`{letter-spacing:-.01em;}.ba{letter-spacing:-.02em;}.bb{clip-path:url(#g);}</style><linearGradient id="d" x1="478.51" y1="-129.55" x2="478.51" y2="1385.21" gradientTransform="matrix(1, 0, 0, 1, 0, 0)" gradientUnits="userSpaceOnUse"><stop offset="0" stop-color="#722332"/><stop offset=".36" stop-color="#e6704c"/><stop offset=".76" stop-color="#efae5f"/><stop offset="1" stop-color="#f8c592"/></linearGradient><clipPath id="g"><rect class="as" x="57.71" y="659.85" width="841.89" height="411.57"/></clipPath></defs><g id="a"/><g id="b"><g id="c"><rect class="ar" x="57.57" width="841.89" height="1190.55"/><g id="e" class="af"><ellipse class="aj" cx="490.83" cy="685.52" rx="270.44" ry="270.29" transform="translate(-183.18 179.01) rotate(-17.47)"/></g><g id="f"><g class="bb"><path class="ah" d="M318.75,874.25c.79-.12,.69-.9,.79-1.63-.44-1.42-.23-3.12-1.28-4.49-.22-.28-.43-.6-.82-.55-.44,.07-.46,.48-.47,.83-.06,1.62-.05,3.24,.61,4.77,.23,.53,.53,1.15,1.16,1.06Z"/><path id="h" class="ah" d="M970.51,860.34c14-9.42-16.11,5.03-16.13,4.05-2.54-.28-4.61,.81-6.71,2.07-4.46,2.69-9.1,4.98-14.44,5.38-.45,.03-.96,.32-1.3,.64-1.83,1.68-4.05,2.5-6.39,3.13-2.04,.55-4.09,1.08-6.06,1.84-2.4,.92-3.13,.54-3.27-2.12-.1-1.94-.33-3.84-1.16-5.61-.1,2.15-.24,4.24-.58,6.34-.43,2.68-1.63,3.63-4.36,3.18-.89-.15-1.82-.51-2.68-.39-2.2,.32-3.08-.48-2.55-2.66,.24-1,.66-1.95,.65-3.31-1.44,1.32-1.07,2.94-1.36,4.27-.34,1.56-.95,2.39-2.5,2.97-1.41,.53-3.04,.67-4.15,2.12-.83,1.09-1.79,.14-2.27-.79-.25-.47-.1-1.13-.29-1.64-.25-.65-.06-1.88-1.15-1.69-1.01,.18-1.36,1.24-1.09,2.19,.32,1.11,.42,2.22,.33,3.34-.05,.68,.38,1.67-.79,1.89-.95,.18-1.82,.05-2.44-.83-.41-.59-.55-1.77-1.49-1.49-.9,.26-.31,1.36-.5,2.07-.19,.72-.51,1.33-1.28,1.52-.87,.22-1.3-.39-1.66-1.01-.24-.42-.33-.93-.57-1.35-.26-.44-.11-1.36-.88-1.23-.85,.14-.68,1.18-.56,1.58,.36,1.18,.45,2.59-.59,2.95-1.06,.36-1.11-1.34-1.69-2.05-.59-.72-.99-2.13-2.16-.89-1.44,1.53-1.56,.16-1.79-.71-.38-1.44-.42-2.98-1.8-4.47,0,2.07,.02,3.73,0,5.39,0,.53,.18,1.24-.56,1.41-.6,.14-.77-.49-1.05-.88-.36-.48-.39-1.48-1.12-1.34-.85,.16-.52,1.17-.71,1.8-.19,.64-.28,1.71-1.28,.94-2.32-1.78-4.59-1.3-6.75,.07-1.53,.97-2.05,.29-2.28-1.05-.54-3.12-1.97-5.95-2.71-9.11-1.06,.65-2.37,.83-2.13,2.38,.22,1.41-.35,2.6-.97,3.81-.8,1.55-1.67,3.09-1.72,4.92-.02,.77-.05,1.62-1.12,1.74-1.04,.11-1.26-.73-1.56-1.42-.7-1.62-1.82-2.9-3.16-4.16-.92,1.97,.38,3.64,.52,5.4,.09,1.16,.12,2.1-1,2.32-1.28,.25-1.39-1.08-1.45-1.89-.1-1.52-1-2.48-1.93-3.81-.38,1.28-.64,2.27-.6,3.34,.07,2.04-.88,3.36-2.65,4.43-1.71,1.04-2.49,.53-3.22-1.07-.91-1.98-1.94-3.91-2.96-5.84-.33-.63-.84-1.22-1.67-1-.88,.22-.89,.99-.86,1.71,.02,.49,.07,.98,.12,1.47,.08,.71,.82,1.79-.02,2.04-.99,.29-1.18-.89-1.33-1.73-.06-.34-.14-.71-.3-1.01-.85-1.57-1.04-3.47-2.31-5.21-1.79,4.95,1.65,9.34,.41,14.15-1.4-1.34-1.66-2.96-2.74-4.1-2.37-2.49-3.94-5.32-3.61-8.96,.25-2.84-1.93-4.51-3.52-7.05-.64,4.42,1.19,8.43-.51,12.29-1.01-.4-.78-1.2-.88-1.85-.23-1.6-.42-3.21-.71-4.8-.08-.43-.29-1.06-.94-.91-.5,.12-.44,.67-.44,1.08-.01,1.83,.07,3.67-.02,5.49-.05,.91,.58,2.47-.44,2.61-1.1,.16-1.46-1.41-1.84-2.43-.1-.26-.03-.59-.16-.82-.85-1.5-.68-3.54-2.76-5.12,.6,3.91,.3,7.35,1.47,10.67-2.56-3.39-4.21-7.13-4.81-11.25-.34-2.32-1.41-4.13-3.16-5.68,.5,1.75,.65,3.53,1.14,5.25,.57,2.01,.41,4.05,.18,6.07-.07,.64-.41,1.49-1.32,1.37-.84-.11-1.04-.84-1.08-1.6-.08-1.64,.51-3.18,.72-4.78,.1-.74,.38-1.8-.51-2.07-1.13-.34-1.04,.91-1.26,1.54-.76,2.19-1.38,4.43-2.14,6.62-.21,.59-.32,1.59-1.23,1.46-.76-.11-.65-.97-.69-1.59-.03-.5-.03-1.22-.51-1.29-2.19-.31-1.5-1.95-1.62-3.23-.06-.67,.27-1.68-.59-1.83-.92-.17-.91,.85-1.04,1.51-.14,.66-.46,1.35-1.11,1.38-.75,.04-1.18-.69-1.42-1.35-.36-.99-.59-2.02-.92-3.02-.36-1.11-.52-2.33-1.65-3.8-.02,5.51,.53,10.37,1.2,15.23,.16,1.18,.83,3.13-.4,3.37-1.26,.24-1-1.78-1.33-2.86-.25-.83-.32-2.21-1.54-1.84-2.23,.68-2.61-.3-2.56-2.15,.02-.53-.25-1.09-.47-1.6-.88-2.01-.97-4.04-.56-6.19,.29-1.51,.81-3.06,.46-4.79-3.47,2.15-3.08,5.55-3.32,8.68-.13,1.68,.01,3.38,.02,5.07,0,.47,.14,1.12-.55,1.17-.53,.04-.62-.51-.59-.93,.07-1.22-.53-1.56-1.67-1.55-1.46,.01-.75,1.45-1.56,2.11-2.41-2.58-2.95-5.63-2.64-8.93,.05-.52,.56-1.15-.24-1.44-.68-.25-.98,.37-1.29,.84-.85,1.28-.29,2.71-.38,4.06-.22,3.37-.58,3.7-3.74,2.81-1.19-.34-1.38,.04-1.1,1.14,.31,1.17,1.14,1.91,1.93,2.71,.53,.54,.64,1.14-.02,1.62-.63,.47-1.21,.22-1.61-.39-.35-.53-.54-1.27-1.02-1.57-.89-.54-1.47-2.07-2.44-1.74-1.06,.35-.28,1.74-.41,2.67-.07,.48,0,1.06-.65,1.16-.61,.1-.85-.39-1.09-.83-.53-.99-1.2-1.9-1.45-3.03-.2-.88-.8-1.54-1.7-1.7-1.05-.19-.91,.84-1.21,1.41-.23,.43-.39,.97-1.03,.87-.53-.08-.58-.56-.62-.98-.3-3.7-2.49-6.85-3.03-10.49-.1-.7-.3-1.5-1.47-1.82,.53,3.54,.67,6.88,.01,10.26-1.5-3.24-2.11-6.78-4.02-9.8-.26,2.84,.65,5.71-.66,8.45-1.16-.67-1.16-2.19-2.42-2.73-.89,2.28-.83,4.35,.26,6.4,.23,.44,.71,1.11-.12,1.41-.66,.24-.98-.39-1.22-.91-.12-.25-.2-.53-.27-.8-1.14-4.49-2.66-8.91-2.22-13.66,.04-.43,.18-1.02-.6-1.28-.55,.57-.61,1.32-.66,2.07-.15,1.96-.25,3.93-.48,5.89-.08,.66,.04,1.65-.64,1.9-.91,.33-1.02-.98-1.73-1.26-.12-.05-.25-.18-.29-.3-1.1-3.33-3.46-5.81-5.61-8.45-.66-.81-1.17-1.91-.68-3.3,.56-1.56,.8-3.2,1.76-4.65,.89-1.35,1.66-2.97,1.56-4.55-.32-5.03,1.46-9.69,2.33-14.5,.41-2.26,2.04-3.97,3.57-5.63,.54-.58,1.3-.5,2-.37,4.04,.74,8,.61,11.83-1.07,1.39-.61,2.68-.53,3.95,.51,1.67,1.37,3.69,1.66,5.8,1.5,1.5-.11,2.32-.92,2.47-2.38,.2-1.96-.13-3.83-1.31-5.43-2.16-2.92-2.64-6.27-2.93-9.76-.32-3.83-2.94-6.89-3.86-10.55-.01-.06-.09-.11-.15-.15-1.18-.69-1.22-1.8-1.09-2.96,.1-.83,.41-1.66,.36-2.48-.05-.9,.66-2.13-.51-2.65-1.08-.48-1.76,.6-2.5,1.21-.27,.22-.52,.5-.69,.79-.91,1.56-2.47,2.33-4.07,2.21-4.71-.34-8.35,2.09-11.96,4.41-3.1,1.99-5.88,4.46-8.88,6.6-2.12,1.5-3.46,.86-4-1.73-.16-.75-.29-1.51-.52-2.24-.18-.55-.71-.7-1.22-.58-.43,.1-.87,.5-.61,.92,.6,.99,.06,2.1,.47,3.08,.27,.65,.71,1.42-.29,1.73-.8,.25-1.31-.42-1.59-1.09-.51-1.22-.95-2.48-1.42-3.72-.2-.54-.48-1.18-1.12-1.04-.64,.14-.37,.83-.33,1.28,.07,.9,.06,1.87,.41,2.67,.77,1.74-.08,2.17-1.56,2.52-3.98,.95-8.05,1.21-12.1,1.55-5.36,.44-10.71-.5-16.07-.4-5.65,.11-11.26-.29-16.86-1.06-5.07-.7-9.87-.03-13.88,3.55-.91,.81-2.03,.82-3.16,.95-3.57,.41-7.03,1.15-9.04,4.6-2.19,3.74-3.91,7.67-5.11,11.85-.38,1.31-1.2,2.29-2.72,2.65-3.5,.83-6.94,1.89-10.45,2.7-6.79,1.57-13.61,3.03-20.41,4.57-1.31,.3-2.27-.12-2.81-1.26-.49-1.02-1.3-1.33-2.24-1.18-2.12,.33-4.03-.08-5.87-1.14-.86-.5-1.83-.62-2.84-.43-.88,.17-1.83,.03-2.22-.83-.9-1.99-1.42-4.14-1.1-6.3,.23-1.5,1.81-1.99,3.04-2.6,1.32-.65,2.14-1.43,1.07-2.94-.5-.71-.45-1.46-.04-2.19,.72-1.28,.38-2.47-.38-3.56-.77-1.11-1.16-2.42-1.81-3.57-1.84-3.24-2.48-7.28-6.12-9.37-.45-.26-.58-.79-.55-1.31,.16-3.56-1.69-4.35-4.78-4.11-1.21,.1-2.3-.07-2.92-1.21-.78-1.41-2.13-2.91-2.06-4.31,.21-4.26-3.12-6.17-5.19-8.93-.21-.28-.53-.47-.75-.74-.41-.49-.52-1.01,0-1.5,2.5-2.34,3.31-5.26,2.98-8.58-.1-1.03,.26-1.6,1.4-1.57,.76,.02,1.47-.18,1.43-1.14-.04-1.07-.82-1.19-1.66-1.12-1.46,.13-2.46-.41-3.42-1.58-1.44-1.75-3.58-2.47-5.79-2.68-1.67-.16-2.91,.48-2.81,2.48,.01,.28-.04,.56-.1,.84-.26,1.15-.82,1.86-2.16,1.87-1.38,.02-1.34-.99-1.56-1.83-.28-1.08-.18-2.42-.81-3.21-2.96-3.71-2.37-7.08,.52-10.43,.63-.73,1.03-1.79,.25-2.5-2.56-2.33-5.04-4.91-8.71-5.41-5.88-.8-11.82-.56-17.72-.66-10.02-.18-20.05-.6-30.07-.64-4.78-.02-9.56-.38-14.34-.31-.02,0-.03,0-.05,0h-.34c-1.63,.03-3.27,.12-4.9,.29-.45,.05-.92-.05-1.21-.29h-5.01c-.37,0-.72-.04-1.04-.1-.09,0-.16,.02-.25,.02-1.98,.07-3.91-.38-5.86-.42-11.51-.22-23.02-.35-34.52-.52-2.52-.04-5.05-.13-7.57-.22-7.9-.3-15.82-.17-23.72-.17-1.37,0-2.84,.3-3.43,1.67-.63,1.46-.53,3,.6,4.36,.96,1.15,1.55,2.42,1.74,3.99,.59,4.76,.76,9.56,.71,14.32-.1,9.26,.45,18.51-.54,27.8-.54,5.05-.28,10.28-.53,15.45-.34,6.81-1.03,13.63-.63,20.46,.1,1.63-.26,2.84-2.06,3.41-1.12,.36-2.25,1.06-2.19,2.53,.06,1.6,1.03,2.62,2.47,3.11,1.93,.66,3.91,1.18,5.96,1.41,4.54,.5,4.95,1.06,4.46,5.62-.12,1.14-.58,1.63-1.73,1.6-1.69-.05-3.39-.03-5.08,0-4.79,.07-4.63-.91-4.62,4.69,0,1.71-.2,3.26-1.76,4.59-.61-1.57-1.16-2.92-1.65-4.3-.28-.78-.64-1.57-1.52-1.52-1.04,.06-.9,1.08-1.03,1.81-.14,.75-.1,1.72-1.01,1.9-.96,.19-1.44-.73-1.95-1.38-.5-.63-.63-1.39-.62-2.19,.01-.84-.04-1.69-.12-2.53-.04-.44-.3-.86-.8-.81-.41,.04-.39,.51-.5,.84-.75,2.26-.39,4.61-.58,6.92-.08,.97-.29,2.13-1.58,2.14-1.34,.02-2.01-.95-2.12-2.19-.12-1.26-.05-2.53-.11-3.8-.03-.56-.13-1.32-.73-1.36-.83-.06-.88,.75-.9,1.39-.06,1.34,0,2.68-.16,4.01-.09,.8-.49,2.06-1.55,1.13-1.69-1.49-2.05-.28-2.7,.9-.36,.65-.85,1.5-1.69,1.39-.86-.11-.99-1.06-1.24-1.79-.44-1.28-.23-2.85-1.79-3.63-.75-.38-1.35-1.02-1.55-1.91-.08-.36-.32-.71-.69-.69-.59,.02-.47,.57-.57,.96-.45,1.8-.34,3.63-.41,5.46-.02,.5,.2,1.28-.65,1.31-.67,.02-.52-.71-.72-1.12-.61-1.2-.21-2.95-1.83-3.6-1.25-.5-1.81-1.47-2.15-2.68-.18-.64-.29-1.35-1.24-1.72-.09,.51-.23,.9-.21,1.28,.15,2.8,.36,5.61,.5,8.41,.03,.57,.3,1.47-.6,1.55-.89,.08-1.05-.8-1.13-1.49-.17-1.46-.26-2.94-.4-4.4-.07-.74,.06-1.88-.85-1.88-.81,0-1.15,1.08-1.24,1.93-.1,1,.06,2.07-1.02,2.85-1.02-1.47-.5-3.01-.7-4.43-.06-.46,.14-1.13-.53-1.21-.53-.06-.98,.46-1.02,.92-.17,1.92-1.08,3.62-1.46,5.47-.15,.73,.08,1.82-1.01,1.72-.88-.08-.86-1.17-1-1.89-.1-.54-.18-1.21,.24-1.62,2.73-2.68,1.18-6.51,2.63-9.53,.16-.33,.05-.86-.45-1.05-.46-.18-.83,.09-1.15,.35-.88,.69-.86,1.67-.89,2.68-.04,1.95,.06,3.88-1.66,5.44-2.37,2.15-2.43,3.2-.95,6.23,.22,.46,.4,.92,.12,1.4-.36,.61-.95,.57-1.5,.38-.89-.3-1.81-.55-2.68-.13-1.11,.53-1.7,.12-2.19-.85-1.26-2.51-1.3-5.23-1.49-7.93-.08-1.08,.03-2.19-1.65-3.04,0,3.1,.02,5.83-.02,8.55,0,.47,.37,1.3-.52,1.32-.6,.01-.92-.59-.98-1.2-.04-.42,0-.85-.05-1.27-.2-1.72-.42-3.43-.63-5.14-.9,.78-1.11,1.56-1.14,2.42-.1,2.27,.42,4.69-2.21,6.2-.8,.46-1.42,1.05-2.4,.95-1.14-.11-16.81-2.16-18.16-1.73-1.5,.47-15-5.87-15.07-3.15,0,.19-.44,.31-.73,.15-.36-.2-.4-.56-.4-.91,0-.98,.03-1.97,.01-2.95,0-.42-.05-.89-.64-.89-.44,0-.53,.39-.67,.7-.7,1.57-.77,3.29-.62,4.9,.12,1.3-.34,1.44-1.32,1.41-.21,0-.43-.01-.63,.04-2.68,.64-3.19,.19-2.84-2.59,.14-1.11,.43-2.21,.62-3.31,.1-.58,.53-1.41-.3-1.6-.69-.16-1.04,.69-1.17,1.27-.36,1.64-.59,3.31-.9,4.96-.1,.55,.31,1.45-.67,1.49-.81,.04-.84-.8-1.07-1.37-.16-.39-.33-.79-.58-1.12-.44-.58-.98-1.11-1.78-.65-.78,.44-.53,1-.09,1.58,.38,.51,.51,1.13-.2,1.4-.8,.3-1.18-.4-1.31-1-.2-.9-.14-1.82-1.52-1.78-1.43,.04-1.27,.99-1.31,1.9-.02,.45-.17,.9-.7,.85-.59-.06-.39-.62-.47-1-.39-1.89-.58-3.79-.15-5.75-.86,.7-1.37,1.35-1.6,2.29-.54,2.25-3.13,2.61-4.37,4.3-.3,.41-1.12-.05-1.11-.77,.03-1.79-.55-1.79-1.7-.69-.47,.45-.88,.03-1.28-.3-.46-.39-.47-1.22-1.31-1.3-.07,.09-.18,.18-.24,.29-.6,1.15,.12,2.9-1.36,3.58-2.05,.94-4.25,1.43-6.55,1.26-.55-.04-.97-.16-1.07-.77-.14-.8-.08-1.48,.66-2.06,1.84-1.45,1.79-3.55,2.21-5.71-1.13,.23-1.39,.92-1.49,1.45-.4,2.1-2.61,2.89-3.33,4.75-.1,.25-.43,.37-.73,.21-.47-.25-7.18-.05-7.21,.88,0,.25-.13,.58-.31,.71-.34,.25-.75,.05-.91-.25-.83-1.54-2.06-2.86-2.56-4.57-.16-.56,.14-1.53-.7-1.52-.85,.02-.76,1-.93,1.66-.33,1.27,.57,2.54,.13,3.87-.74-.14-.86-.66-1.16-1.03-.56-.7-.45-2.35-1.77-1.91-1.01,.34-.95,1.75-1.04,2.8-.02,.21,0,.42,0,.63,.01,.72,.05,1.63-.87,1.62-.9-.01-1.29-.8-1.06-1.69,.16-.63,.47-1.29-.28-1.67-.75-.38-.88,.49-1.26,.82-1.55,1.34-2.18,1.29-3.13-.44-.51-.94-.83-1.22-1.54-.1-1.05,1.66-2.83,1.43-4.13,.71-1.45-.8-.96-2.39-.22-3.55,.57-.91,.76-1.8,.67-2.79-.07-.8,.37-1.99-.63-2.23-.94-.23-1.26,.84-1.56,1.64-.24,.64-.55,1.28-.93,1.86-.27,.42-.05,1.34-.89,1.18-.63-.12-.7-.78-.76-1.36-.18-1.64-.4-3.28-.67-5.5-1.65,2.25-1.52,4.27-1.31,6.23,.1,.94,.12,1.83-.18,2.69-.37,1.07-1.1,1.75-2.33,1.81-1.33,.07-1.6-.75-1.85-1.82-.33-1.44-.69-2.9-1.3-4.23-.48-1.04-.43-2.47-2.13-3.36,0,1.67,.05,2.98-.02,4.29-.04,.87,.5,2.11-1.2,2.13-1.46,.02-1.55-.89-1.52-1.97,.02-.72-.01-1.52-.86-1.74-1.34-.36-1.75-1.26-1.78-2.51-.01-.58-.15-1.23-.88-1.21-.87,.03-.86,.81-.86,1.43-.02,1.13,.04,2.25,.04,3.38,0,.44-.07,.88-.62,.94-.48,.05-.86-.21-.97-.65-.23-.88-.39-1.78-.56-2.67-.11-.58,.11-1.5-.78-1.44-.71,.05-.77,.92-.79,1.53-.05,1.83-.04,3.66-.05,5.49,0,.67-.12,1.29-.84,1.55-.78,.28-1.32-.05-1.83-.66-1.05-1.24-.93-2.57-.39-3.93,.58-1.45,.92-3-.44-4.04-1.12-.85-1.25-1.87-1.58-3.03-.38-1.32,.31-3.01-1.27-4.09-.7,1.14-.37,2.25-.25,3.34,.38,3.41,.71,6.81,.21,10.24-.1,.68-.24,1.34-1.05,1.32-.97-.03-.74-.85-.75-1.44-.02-1.06,.04-2.11,.02-3.17-.01-.84-.02-1.7-.16-2.52-.09-.53-.33-1.25-.9-1.33-.71-.09-.76,.69-.93,1.2-.51,1.47-.9,2.96-.83,4.54,.03,.59,.23,1.43-.66,1.53-.83,.09-1.19-.7-1.43-1.33-.19-.5-.1-1.11-.12-1.67-.06-3.04-.51-6.01-1.71-8.84-.13-.31-.12-.75-.6-.69-.39,.05-.59,.39-.64,.74-.08,.56-.14,1.12-.1,1.68,.11,1.96,.35,3.92,.38,5.88,.02,1.63-1.42,2.89-3,2.87-1.83-.03-2.35-1.03-2.36-2.74-.01-2.45-1.15-4.79-.9-7.3,.04-.36-.12-.75-.53-.79-.57-.06-.69,.39-.7,.83-.02,1.08-.7,1.45-1.63,1.57-.51,.06-1.02,.19-1.23,.69-.65,1.54-1.3,3.09-1.86,4.67-.23,.64-.1,1.62-.97,1.63-.79,.01-1.02-.83-1.1-1.57-.07-.63-.41-1.08-1.07-1.11-.56-.03-.93,.31-1.04,.86-.13,.69-.13,1.53-1.12,1.5-.97-.03-1.95-.55-2.25-1.38-.72-2.01-2.43-3.66-2.19-6.02,.09-.89-.09-1.78-1.29-1.74-.98,.04-1.67,.65-1.61,1.61,.1,1.55-.69,2.68-1.44,3.86-.24,.38-.24,1.08-.94,.93-.67-.14-.8-.77-.81-1.33-.04-1.27-.01-2.53-.02-3.8,0-.42,.05-.91-.48-1.03-.22-.05-.64,.07-.74,.24-1.1,2.02-3.25,3.31-3.98,5.59-.12,.37-.11,.96-.69,.86-.25-.05-.47-.48-.62-.78q-1.31-2.56-3.93-1.37c-2.82,1.28-4.1,.82-5.06-1.8-.33-.9-.9-1.23-1.43-.27-.98,1.78-2.75,2.53-4.25,3.66-1.58,1.19-2.23,.52-2.74-.95-.27-.78-.49-2.19-1.28-1.93-2.05,.66-2.92-.26-3.69-1.84-.11-.22-.61-.3-.95-.35-1.94-.3-3.21-2.89-5.61-1.64-2.69-1.68-6.04-2.42-7.77-5.48-.42-.74-1.11-1.16-2.05-1.31-5.81-.95-11.62-1.94-17.41-2.98-1.71-.31-3.33-1.04-5.13-.98-8.7,.25-17.21-.72-25.61-3.2-6.43-1.9-12.32-4.48-17.27-9.16-2.32-2.19-4.95-4.09-7.63-5.91-8.26-5.61-16.95-10.51-25.35-15.88-4.07-2.61-8.07-5.33-12.1-8C.04,874.69,.05,940.34,0,1005.99c0,1.69,8.64,46.01,10.54,46.01,317.45-.06,655.11,16.19,972.56,16.19,0-46.93-12.57-160.91-12.58-207.85Zm-229.92-24.19c1.53-3.44,3.12-4.17,6.66-2.82,2.26,.86,4.13,2.36,5.77,4.13,1.02,1.09,.66,1.84-.68,1.93-2.8,.19-5.44,1.51-8.02,1.09-.49,0-.71,0-.92,0-4.33-.06-4.55-.4-2.81-4.33Zm-582.5,37.4c-.14-.3-.24-.43-.23-.54,.07-.8-.34-1.68,.39-2.36,.08-.08,.47,0,.5,.08,.37,.98,.23,1.89-.65,2.81Zm209.97,5.97c-.7,.04-1.32-.22-1.29-1,.03-.73,.79-.99,1.32-1.16,.83-.26,.61,.71,.94,.92,.02,.83-.33,1.21-.98,1.25Zm34.37-6.24c-1.37,.17-2.2-.09-2.64-1.07-.26-.59-.35-1.26,.08-1.8,.64-.8,1.53-.51,2.35-.39,.14,.02,.27,.06,.4,.12,.94,.38,2.64-.11,2.45,1.61-.19,1.7-1.87,1.31-2.65,1.54Zm58.48-13.03c.4-.1,.84-.1,1.25-.15,.48,.17,1.31-.23,1.32,.62,0,.53-.6,.69-1.13,.73-.41,.03-.84,.09-1.22,.24-.52,.2-1.17,1.05-1.51,.14-.31-.8,.48-1.38,1.29-1.58Zm-28.41-2.24c.61-.14,1.12,.11,1.39,.68,.18,.39,.22,.85-.09,1.19-.43,.49-.95,.22-1.33-.05-.87-.61-2.02-.27-3.22-.93,1.3-.36,2.27-.66,3.25-.89Zm-22.57,20.59c-.26,.82-.79,.45-1.26-.01-1.3-1.27-.76-2.88-.91-4.45,0-.68-.04-1.45,0-2.22,.05-.83,.06-1.89,1.18-1.89,.99,0,2.1,.53,2.22,1.6,.28,2.41-.51,4.71-1.23,6.97Zm2.51-15.38c-.08,.45-.28,1.01-.93,.91-.47-.07-.66-.49-.72-.92-.15-.96-.27-1.92-.39-2.78,.04-.67,0-1.24,.11-1.78,.15-.81,.78-1.17,1.54-1.11,.75,.06,1.08,.7,1.02,1.36-.14,1.45-.36,2.89-.62,4.32Zm5.11-1.48c.13-.47,.41-.93,.4-1.39-.04-1.99,.94-2.63,2.58-2.27,2.04-.07,3.6,.45,5.08,1.62,1.92,1.52,4.46,1.57,6.69,2.36,1,.35,2.11,.72,1.91,1.79-.16,.87-1.37,1.16-2.31,.97-4.16-.83-8.37-.43-12.56-.53-1.9-.04-2.31-.71-1.78-2.56Zm5.55,15.48c-.77,.3-.8-.52-1-1-.17-.41-.43-.77-.93-.64-.45,.12-.65,.52-.69,.95-.1,.98-.04,1.95,.27,2.9,.16,.5,.1,1.03-.44,1.26-.65,.29-.79-.29-1.05-.7-.97-1.5-1.49-3.12-1.36-4.7-.15-2.8,2.26-4.38,4.64-3.2,1.6,.8,.71,2.37,.89,3.6,.07,.5,.29,1.28-.32,1.52Zm14.42-4.21c-1.29,.55-2.43,1.57-3.97,.25-.59-.51-3.38,1.84-3.46,2.85-.07,.9-.2,1.69-1.22,1.94-.96,.24-1.42-.47-1.87-1.07-.42-.55-.77-1.16-1.05-1.79-.41-.9-1.54-1.7-.94-2.79,.72-1.32,2.11-.71,3.26-.7,2.99-.46,5.97,.34,8.96-.07,.52-.07,1.3-.2,1.44,.49,.17,.81-.67,.66-1.15,.87Zm2.23,8.29c-.19-1.4-.73-2.84,.92-4.54,0,2-.21,3.32-.92,4.54Zm1.04-21.06c-.48-.53-.38-1.12,.2-1.42,.94-.48,1.84-.45,2.64,.47,1.17,1.36,1.59,3.27,3.25,4.34-2.65-.14-4.48-1.59-6.09-3.39Zm5.56,22.84c-.48-1.73-.75-3.4,1.73-4.79-1.15,1.81-.8,3.47-1.73,4.79Zm11-.7c-.97-1.81-1.22-3.75-2.39-5.22-.18-.22-.05-.58,.27-.67,.15-.04,.45,.06,.53,.19,1.09,1.63,2.65,3.12,1.59,5.69Zm2.49-5.81c-1.15-.44-2.33-.98-2.55-2.33-.08-.49,.11-1.4,1.04-1.21,1.62,.34,1.47,2.03,2.22,3-.02,.53-.37,.68-.71,.55Zm5.65,5.3c-1.23-.11-1.55-1.47-1.73-2.54-.15-.91,.43-1.44,1.39-1.36,1.36,.11,1.1,1.18,1.15,2.08-.17,.66,.15,1.91-.81,1.82Zm5.33,1.86c-.57,.1-.97-.19-1.08-.74-.13-.67,.25-1.08,.9-1.13,.57-.05,.86,.35,1.02,.73-.01,.68-.3,1.04-.85,1.14Zm5.18-2.46c-.52,0-.76-.29-.79-.76-.04-.62,.31-.89,.88-.83,.49,.05,1.02,.2,.96,.83-.06,.57-.57,.7-1.06,.77Zm-.08-5.42c-.9-.13-1.64-.76-1.52-1.72,.15-1.15,1.23-.93,2.04-.95,.64-.01,1.33,0,1.29,1.02-.52,.61-.6,1.82-1.82,1.65Zm5.09,1.48c0-1.17,.48-2.31,.14-3.52-.14-.52,.34-.89,.9-.94,.66-.05,1.13,.35,1.21,.93,.11,.82,.03,1.67,.03,2.51h-.03c0,.35,.02,.7,0,1.05-.04,.75,.14,1.76-.94,1.79-1.08,.03-1.29-.98-1.29-1.82Zm2.02,7.66c-1.14,0-1.41-.95-1.52-1.87,.05-.57-.03-1.41,.74-1.22,.95,.23,2.24,.48,2.35,1.67,.06,.68-.76,1.43-1.57,1.42Zm4.72-6.31c-.08,.64-.03,1.83-1.13,1.65-.92-.16-1.89-.67-1.88-1.93,0-.63,0-1.26,0-1.89h-.03c0-.56,0-1.12,0-1.68-.02-1.14,.59-1.66,1.68-1.7,1.09-.05,1.5,.56,1.48,1.57-.03,1.33,.05,2.67-.12,3.98Zm-.77-14.02c-3.81-.26-7.54,.86-10.4,.63-5.12-.16-9.22,.66-13.36,.92-.57,.04-1.11,.16-1.62-.16-.29-.19-.68-.38-.55-.78,.06-.19,.39-.35,.63-.44,3.2-1.25,6.44-2.42,9.49-4.02,1.34-.7,2.91-.74,4.36-.52,3.16,.49,6.33,.21,9.49,.33,1,.04,1.98,.14,2.84,.69,.98,.63,1.36,1.79,1.26,2.72-.13,1.16-1.38,.68-2.13,.63Zm24.68,12.79c-.65,.89-1.17-.13-1.71-.46-1.16-.7-1.3,.06-1.36,.95-.15,1.95-.33,3.91-.47,5.86-.05,.71,0,1.55-.99,1.54-.8-.01-.87-.76-.97-1.41-.42-2.7-.86-5.4-1.29-8.1-.09-.56-.17-1.19-.89-1.23-.61-.04-.85,.46-.91,.97-.16,1.39-1.37,1.99-2.16,3.26-.17-.56-.2-.83-.32-1.05-.4-.76,.04-2.2-1.04-2.27-1.16-.07-.51,1.37-.95,2.03-.35,.53-.62,1.34-1.35,1.06-1.9-.73-1.67,.57-1.85,1.68-.28,1.72-.53,3.48-1.73,4.88-.3,.35-.49,.95-1.12,.72-.48-.18-.41-.68-.45-1.09-.31-3.6,.31-7.13,1.26-10.55,.48-1.73,2.57-2.16,3.87-1.56,4.21,1.93,8.55,1.04,12.85,1.12,.21,0,.42-.05,.63-.04,.88,.05,2.11-.29,2.39,.8,.29,1.14-.79,2.03-1.42,2.9Zm8.48-14.08c-.37,.67-.69,1.38-.9,2.11-.93,3.36-.92,3.34-4.49,3.29-2.61-.04-5.21,0-7.82,0v-.22c-3.24,0-6.48,.07-9.72-.02-3.12-.09-5.22-2.91-4.48-5.92,.29-1.17,1.33-1.07,2.25-1.09,6.67-.08,13.33-.85,20.01-.08,1.32,.15,2.68,.04,4.01,0,1.58-.04,1.87,.6,1.14,1.93Zm8.42,11.62c-.25,1.21-.82,2.71-2.12,2.79-1.25,.07-1.27-1.51-1.32-2.46-.06-1.17,.87-1.63,1.88-1.7,.97,.06,1.75,.47,1.56,1.38Zm-1.81-6.04c-.75-.1-1.85,.21-1.84-.88,.02-.99,.78-1.97,1.87-1.79,.91,.15,2.42,.39,2.34,1.59-.08,1.11-1.46,1-2.37,1.08Zm16.35-1.27c-.19,.67-.82,.61-1.22,.48-3.6-1.13-7.97,.09-10.77-3.49-.58-.74-1.57-.55-2.31-.93-.68-.35-1.59-.63-1.39-1.59,.17-.86,.97-1.13,1.81-1.14,.7,0,1.41,0,1.92,0,2.72,.21,5.25,.35,7.77,.61,1.78,.18,4.65,4.42,4.19,6.05Zm5.99-4.76c-.76,1.05-.72,2.23-.36,3.52,.2,.72-.34,1.16-1.09,1.23-.95,.09-1.83-.26-1.94-1.19-.13-1.14-.71-1.89-1.35-2.74-.83-1.1-.53-1.83,.96-1.83,.98,0,1.96,.01,2.95,.04,.55,.02,.97,.21,.84,.98Zm5.9,4.65c-1.06-.16-2.13,.14-3.09-.06-1.53-.32-.53-1.77-.82-2.68-.12-.4-.2-.82-.35-1.4-.06-.38,.15-.83,.69-.98,.82-.22,1.68-.32,2.46,.14,.51,.3,.94,.79,.6,1.4-.63,1.13-.51,1.95,.65,2.63,.54,.32,.57,1.06-.14,.96Zm2.21-1.56c-.55-.05-.91-.37-.92-.94-.01-.46,.19-.8,.73-.83,.55,.19,.99,.54,1.04,1.15,.05,.58-.42,.65-.85,.61Zm-.11-25.33c-.51,.22-1.07,.33-1.64,.49-.97-.47-1.86-.22-2.81,.17-.94,.39-1.4-.47-1.8-1.08-.44-.67-.59-1.48,.06-2.13,.59-.58,1.4-.45,1.96-.05,1.17,.83,2.38,1.1,3.78,.9,.5-.07,1.26-.27,1.42,.48,.14,.63-.44,1-.96,1.22Zm.47-46.53c-1.62,.35-2.97,.07-3.24-1.94-.12-.9-.28-1.79-.43-2.68,.02-1.53,.17-2.89,2.16-2.97,1.95-.08,2.58,1.02,2.57,2.77,0,.62,.19,1.24,.32,1.85,.3,1.36,.28,2.61-1.39,2.98Zm5.34,49.51c-2.17-.69-2.74-1.81-2.1-4.02,.21-.73,.64-1.04,1.36-1.02,.56,.01,1.12,.06,1.68,.05,3.37-.08,2.92,.01,2.88,2.75,0,.42-.04,.84,0,1.26,.22,1.71-.46,2.21-2.05,1.59-.58-.23-1.19-.41-1.79-.6Zm2.93,38.7c-.8-.02-.79-.84-.84-1.45-.04-.56-.04-1.15,.79-1.22,.71,.2,1.29,.62,1.23,1.42-.04,.65-.53,1.27-1.18,1.25Zm7.57-40.12c1.27,.38,1.06,1.84,1.2,2.91,.17,1.28,.51,2.47,1.09,3.61,.25,.5,.45,1.02,.61,1.39,.02,.87-.33,.97-.95,.84-.9-.19-4.75-3.83-4.89-4.69-.18-1.08,.47-1.79,1.23-2.28,.76-.49,.6-2.12,1.72-1.79Zm-3.36-3.15c.97-.02,1.3,.69,1.32,1.55,.01,.97-.51,1.72-1.46,1.69-1.07-.03-.56-1.05-.72-1.63,.12-.65-.22-1.58,.86-1.6Zm6.28,42.34c-.08,.65-.22,1.65-1.09,1.43-.84-.21-2.01-.6-2.01-1.73,0-.91,.87-1.13,1.6-1.05,1.01,0,1.63,.36,1.51,1.35Zm.24-6.86c-.49,0-.98,0-1.7,0-1.3,.12-2.82-.14-4.36,.35-1.53,.49-2.43-.43-2.08-2.11,.25-1.21,.46-2.28-.26-3.4-.5-.77-.07-1.26,.69-1.63,.98-.48,1.99-.64,3.06-.58,2.17,.14,4.3,.65,6.49,.5,.81-.05,1.32,.37,1.47,1.19,.09,.48,.24,.95,.32,1.43,.56,3.54-.07,4.27-3.63,4.23Zm27.18-18.16c8.85-1.95,17.75-3.72,26.62-5.59,1.77-.37,3.52-.87,5.27-1.37,.68-.2,1.55-.63,1.85,.18,.34,.93-.6,1.24-1.37,1.47-4.25,1.31-8.62,2.07-12.97,2.89-8.63,1.62-17.26,3.19-25.78,5.33l-.23-.56c2.2-.8,4.34-1.85,6.61-2.35Zm41.17,25.02c-.99,.8-1.21,1.62-1.17,2.71,.07,1.75-.12,3.52,.32,5.25,.12,.48,.13,1.04-.4,1.31-.62,.32-.82-.25-1.15-.6-1.68-1.82-2.19-4-2.2-6.41,0-.87,.39-1.95-.88-2.78-.55,3.31-1.39,6.36-.97,10.11-1.9-2.19-1.61-4.41-2.06-6.43-.48-2.16,.1-4.31,.03-6.61-1.3,.32-1.26,1.35-1.42,2.15-.26,1.32-.66,2.59-1.21,3.81-.18,.39-.45,.78-.95,.67-.52-.11-.53-.59-.55-1.02-.02-.77,0-1.55-.04-2.32-.02-.51-.17-1.01-.77-1.11-.66-.11-.93,.43-1,.87-.19,1.27-.73,1.95-2.1,2.18-.92,.15-1.13,1.13-1.11,2.05,.03,1.39,0,2.79,0,4.31-1.18-.16-1.77-.87-1.76-2.17,0-1.13-.01-2.25,0-3.38,0-.79-.5-1.14-1.15-1.3-.84-.21-.83,.55-1.06,1.02-.51,1.07-.21,2.22-.29,3.33-.04,.51,.25,1.22-.58,1.37-.66,.12-1.07-.38-1.36-.84-.93-1.48-1.2-3.12-1.11-4.84,.04-.67-.08-1.34-.14-2.37-1.09,1.12-1.3,2.19-1.43,3.27-.08,.68-.22,1.31-1.02,1.38-.72,.06-1.23-.45-1.45-1.05-.55-1.51-1.43-2.92-1.39-4.61,.03-1.19-.36-2.08-1.69-2.26-1.37-.19-1.62,.74-1.84,1.78-.08,.39-.4,.73-.59,1.11-.15,.3-.15,.75-.63,.71-.52-.04-.64-.47-.71-.9-.19-1.18-.31-2.37-.58-3.53-.21-.9-.59-1.95-1.76-1.69-1.03,.23-1.74,.9-1.6,2.25,.1,1.01,.67,2.64-.74,2.9-1.25,.23-1.47-1.45-1.98-2.4-.32-.59-.28-1.57-1.23-1.45-.93,.12-.74,1.13-.85,1.73-.31,1.65-.45,3.33-.61,5-.08,.84,.05,1.74-1.1,1.98-1.04,.21-1.66-.4-1.97-1.21-1.03-2.66-2.64-5.15-2.48-8.17,.04-.84-.26-1.68-1.14-1.77-.91-.09-1.18,.75-1.4,1.54-.63,2.28-.22,4.44,.7,6.54,.14,.32,.35,.63,.42,.96,.12,.53,.4,1.25-.24,1.51-.8,.33-1.07-.41-1.27-1.02-1.03-3.12-2.04-6.24-3.11-9.35-.2-.59-.22-1.72-1.15-1.45-.88,.25-.3,1.16-.22,1.81,.31,2.46,1.46,4.8,1.23,7.49-1.38-.47-1.5-1.61-1.69-2.57-.73-3.71-.89-7.52-2.08-11.15-.61-1.84,.38-2.79,2.19-3.35,4.97-1.54,10.13-2.18,15.15-3.45,9.95-2.53,20.1-4.07,30.14-6.14,2.13-.44,4.66-1.28,6.41-.53,1.77,.75,1.1,3.83,2.06,5.64,2.33,4.4,2.99,9.5,5.82,13.69,1.31,1.94,.77,6.27-1.1,7.78Zm6-8.56c-.23,.48-.58,.83-1.15,.71-.58-.12-.68-.64-.8-1.12-.72-2.83-.46-5.72-.52-9.13,.41-3.12-.41-6.74-.38-10.38,0-.87-.25-2.06,1.04-2.12,1.19-.05,2.27,.22,2.41,1.94,.17,2.16,1,4.13,2.12,6.08,1.51,2.65,.68,5.64-.08,8.37-.55,1.98-1.74,3.78-2.64,5.66Zm11.56,17.45c-.91-.99-1.26-2.13-1.28-3.42-.06-3.15-.3-6.31,.41-9.43,.09-.42,.1-.89-.41-1.05-.6-.19-.98,.2-1.09,.71-.21,.96-.33,1.93-.47,2.9-.22,1.48-.66,2.82-1.73,3.98-1.06,1.15-.77,2.8-1.24,4.18-.16,.48,.11,1.35-.66,1.35-.76,0-.95-.83-.99-1.42-.15-2.1-.04-4.22-.67-6.27-.2-.67-.31-1.37-.47-2.05-.23-.98,.16-1.87,1.04-2.04,2.31-.45,3.23-2.35,4.49-3.9,.55-.67,.99-1.47,1.99-1.29,1.18,.21,1.29,1.31,1.32,2.16,.15,5.18,.33,10.37-.22,15.6Zm55.99-5.31c-.02,.49,0,1.1-.64,1.16-.66,.06-.74-.52-.79-1.02-.11-.99-.33-1.94-.75-2.84-.22-.46-.48-.92-1.05-.9-.5,.01-.69,.49-.78,.89-.64,2.96-2.82,4.94-4.55,7.21-.47,.61-1.02,1.27-1.92,1.07-1-.23-1.26-1.13-1.32-1.96-.12-1.61-.07-3.24-.1-4.85,0-.41,.05-.95-.49-1.01-.25-.03-.58,.33-.8,.57-1.61,1.73-1.37,3.89-1.35,6,0,.59,.4,1.46-.48,1.6-.97,.15-1.01-.74-1.07-1.46-.15-1.81-.21-3.57,.3-5.4,.96-3.48,.4-6.98-.42-10.47,.11,2.53-1.31,4.8-1.13,7.28,.16,2.2-.69,4.12-1.37,6.11-.18,.51-.31,1.21-1.08,.72-.34-.22-.36-1.11-1.02-.56-.61,.51-.5,1.26-.28,1.96,.19,.62,1.45,1.31,.18,1.84-1.19,.49-1.36-.61-1.73-1.51-1.22-2.98-.49-6.08-.78-9.11-.07-.79,.61-2.18-.78-2.21-1.17-.03-1.59,1.21-1.62,2.32-.11,3.53-.54,7.07,.16,11-1.85-1.15-3-2.47-3.1-4.36-.09-1.77-.31-3.22-1.96-4.36-1.05-.73-.74-2.32-1.03-3.53-.16-.66,.04-1.61-.8-1.78-.86-.18-1.09,.66-1.35,1.33-.12,.31-.4,.8-.59,.8-2.99-.11-2.53,2.27-3.24,4.14-.1-4.29-2.93-7.62-3.65-12.24-.65,1.9-.36,3.21-.26,4.54,.18,2.52,1.02,5.09-1.26,7.33-.99,.97-.57,2.69-.67,4.08-.04,.62-.07,1.32-.87,1.51-.76,.17-.97-.5-1.23-.94-1.82-3.12-4.1-6.02-3.99-9.97,.04-1.55,.87-2.61,1.38-3.88,1.87-4.71,4-9.32,5.28-14.24,.36-1.38,.67-2.07,2.02-.49,1.47,1.73,3.86,1.55,5.92,1.85,3.17,.46,6.26,1.09,9.32,2.14,3.24,1.11,6.71,1.5,10.03,2.39,2.6,.7,4.99,2.14,7.88,1.71,1.1-.16,2.23-.29,3.34-.45,1.77-.24,3.13,.54,3.07,2.33-.15,4.9,1.82,9.56,1.46,14.45-.03,.42,.02,.85,0,1.27Zm9.77,6.51c-.86,.13-1.31-.41-1.54-1.13-.32-.98-.89-2.09-.87-2.94,.06-2.94-1.06-5.25-2.87-7.4-.38-.45-.62-1.14-.64-1.73-.05-1.2,.26-2.54,1.3-3.09,.97-.51,1.08,1.03,1.76,1.43,3.98,2.34,3.5,6.28,3.65,10.01,0,1.12,0,2.25-.01,3.37,0,.61,.12,1.34-.77,1.48Zm3.75-3.26c-1.61-1.79-1.37-3.15-.79-4.87,1.2,1.54,.66,2.95,.79,4.87Zm76.25,9.66c-1.03-1.93-2.85-3.62-1.82-6.53,1.55,2.12,2.1,4.2,1.82,6.53Zm51.01-10.84c0,.49,.01,.98,0,1.47-.03,.75,.17,1.75-.78,1.95-.88,.19-1.51-.49-1.93-1.3-.75-1.44-.11-6.14,1.05-7.18,.65-.59,1.02-.18,1.15,.49,.3,1.51,.62,3.01,.51,4.57Z"/><path class="ah" d="M435.78,875.08c.02-.06,.08-.12,.06-.16-.01-.04-.1-.06-.15-.08-.02,.06-.08,.12-.06,.16,.01,.04,.1,.06,.15,.08Z"/></g><path id="i" class="ah" d="M357.34,813.61c-1.87-4.66-2.06-6.28-4.43-9.57-2.37-3.29-2-4.33-2-4.33,0,0,3.26-4.89,2.55-6.55,0,0-3.23,.77-7.31,3.54-.95-2.53-4.34-3.36-7.04-3.58l.62,.96s-2.13-.62-3.66-.54c0,0,.72,.51,1.02,.77,0,0-3.11-.3-5.36,.26,0,0,.47,.04,1.06,.43,0,0-3.02-.04-4.77,1.06,0,0,.94-.09,1.19,.26,0,0-2.3,.09-4.21,1.66,0,0,.81-.13,1.28-.04,0,0-3.96,.81-5.88,3.32,0,0,1.06-.34,1.23-.26,0,0-2.75,1.33-4.56,2.72,0,0,1.08-.21,1.52-.21,0,0-.88,.69-1.79,1.84-1.39-1.15-2.87-2.2-4.44-3.09-.1-.66-.05-.83-.04-.85-.02,.02-.16,.13-.75-.31-1.37-1.03-3.92-.71-3.92-.71,0,0-1.38-1.64-3.2-2.77-1.82-1.14-6.71-1.36-7.61-3.5-.75-1.78,.1-9.35,.4-11.87-.18,1.59-.39,5.23,2.3,6.9,0,0,.63-1.36,.72-3.68,1.52,1.93,2.89,1.61,2.89,1.61-.49-4.43-2.83-6.91-3.9-7.83-.24-.67-.53-1.36-.88-2.08,0,0,.89-1.54-1.04-3.53l-1.28-2.38,2.06,.26s1.38-4.05,1.43-7.31c3,.15,5.98,.05,7.71-.75,3.53-1.62-3.6-1.65-6.28-2.28-.52-.12-.92-.52-1.06-1.04l-.54-2.03c-3.14-1.06-6.88-.99-10.18-.21-.16,.52-.23,1-.25,1.4-.02,.58-.44,1.07-1.01,1.17-1.52,.25-4.24,.71-6.08,1.11-2.7,.59,1.02,1.87,7.4,1.77,.2,1.05,.46,2.48,.46,2.84,0,.6-.68,1.28-.68,1.28,0,0-1.11,1.19-2.04,2.13-.94,.94-6.98,6.56-7.66,8.77-.68,2.21-1.44,19.25-1.44,19.25,0,0-1.97,.16-2.14,1.1-.17,.94,0,3.24,0,3.24,0,0-2.13,3.58-1.96,4.26s.85,1.41,.85,1.41c0,0-5.47,3.91-6.5,4.68-1.03,.77-5.53-.8-8.49,2.05-2.96,2.84-4.5,4.77-4.5,4.77,0,0-3.75-2.96-8.8-2.61-6.77,.46-10.13,7.25-11.65,14.82-3.08,15.42-12.39,10.19-12.39,10.19,0,0,2.4,6.43,12.94,5.53,5.04-.43,10.25-4.68,11.95-10.47,.62,6.69,2.33,7.92,1.52,11.99-.9,4.5-5.91,18.82-2.98,22.04,1.44,1.58,.45,8.4,3.84,11.3h6.5s-2.59-5.73-4.14-8.94c-1.54-3.22-.88-2.31-.5-5.91,.38-3.6,3.97-12.32,5.51-14.76,1.54-2.44,3.22-3.73,3.22-3.73l.26,3.16s.2,1.42,.13,2.65c-.02,.29-.05,.58-.11,.83h0c-.05,.26-.1,.51-.17,.77-1.3,4.92-6.24,10.95-6.4,12.83-.26,2.96,2.28,5.18,1.42,8.62-.87,3.43,.53,4.5,.53,4.5h7.83s-1.93-3.99-2.96-6.05c-1.03-2.06-.51-6.26,.77-8.85,.63-1.27,7.6-7.11,8.63-10.43h0c.62-1.25,.89-2.71,1.54-3.9,2.19-3.99,2.51-4.89,6.27-4.76,3.76,.13,16.15,8.75,24.68,7.33,8.53-1.42,5.96,7,9.3,9.48,3.34,2.48,6.82,8.01,6.95,10.33,.13,2.32,0,4.5,0,4.5h8.88s.39-1.67-2.32-4.63c-2.7-2.96-4.89-7.07-6.56-12.48-1.67-5.4,.26-8.67,2.57-12.25,.76-1.17,1.47-2.34,2.09-3.46,3.98,.45,9.73-.65,11.05,3.44,1.87,5.79,2.55,8.97,2.55,8.97-1.99,1.36-7.83,2.95-7.83,2.95-1.53,4.77,2.04,6.02,2.04,6.02,0,0,15.43-4.83,12.55-9.88-5.69-9.97-5.81-15.08-7.86-17.12-1.29-1.29-5.73-2.09-8.84-2.5,1.69-1.75,4.54-4.13,7.15-6.69,1.19-1.28,1.93-3.38,2.4-5.6,2.02,1.14,4.24,1.8,6.67,1.48,3.51-.46,6.37-2.49,8.93-4.81,.29,.87,.66,1.86,1.76,2.61,2.73,1.85,7.04,1.98,7.53-2.78,.49-4.76-2.39-4.56-4.27-9.22Zm-60.01-32.02s-.01,.1-.02,.17c0-.07,.02-.12,.02-.17Zm13.28,25.04s2.51-.52,1.95-3.38c1.34,.8,2.6,1.72,3.79,2.71-.74,1.06-1.4,2.4-1.52,3.89-.01,.12-.02,.24-.02,.35l-4.2-3.56Zm33.7,20.23c-1.93,.46-3.89,.3-5.72-.44-.59-.24-1.16-.53-1.71-.86,.58-3.18,.62-6.43,.6-7.72l2.58-1.48s5.76,5.41,9.41,4.72c1.71-.33,2.23,.24,2.59,1.13-2.25,2.08-4.72,3.94-7.75,4.65Z"/><path class="ah" d="M489.15,733.03c.01-.07,.02-.15,.03-.22,0-.06,.02-.12,.02-.18,.02-.13,.03-.26,.04-.39,0-.04,0-.08,.01-.12,0-.1,.02-.2,.03-.3,0-.04,0-.09,0-.13,0-.1,.01-.2,.02-.3,0-.04,0-.07,0-.11,.01-.28,.02-.55,.01-.82v-.05c0-.12,0-.24-.01-.36v-.03c.01-.35,.02-.69,.02-1.02,0-2.98-1.86-6.05-5.77-6.05h-.02c-.69-.1-1.45-.03-2.3,.1-2.17,.11-4.46,1.44-4.75,1.49-.29-.05-2.57-1.38-4.75-1.49-.84-.13-1.61-.2-2.3-.1h-.02c-3.92,0-5.77,3.07-5.77,6.05,0,.33,0,.67,.02,1.02v.03c0,.12-.01,.24-.01,.36v.05c0,.27,0,.55,.01,.82,0,.04,0,.07,0,.11,0,.1,.01,.2,.02,.3,0,.04,0,.09,0,.13,0,.1,.02,.2,.03,.3,0,.04,0,.08,.01,.12,.01,.13,.03,.26,.04,.39,0,.06,.02,.12,.02,.18,0,.07,.02,.15,.03,.22,.01,.07,.02,.15,.03,.22,0,.06,.02,.11,.03,.17,0,.05,.02,.11,.02,.16,.89,8.78,3.94,20.36,7.24,20.36h0s.02,0,.03,0c.02,0,.05,0,.07,0h.04s.05,0,.07,0h.03s.06-.02,.09-.03h.02s.07-.03,.11-.05h.01s.06-.04,.09-.06c.01,0,.02-.02,.04-.02,.02-.01,.05-.03,.07-.05l.04-.03s.04-.04,.06-.06c.01-.01,.02-.02,.03-.03,.03-.03,.05-.06,.08-.09l.02-.02s.06-.08,.09-.12c0-.01,.02-.03,.03-.04,.02-.03,.04-.06,.06-.09v-.02l.03-.02c.06-.1,.12-.22,.17-.35,.27-.63,.37-1.32,.31-2-.03-.33-.04-.66-.04-1,0-3.77,1.68-6.83,3.77-6.95,2.09,.12,3.77,3.19,3.77,6.95,0,.34-.01,.68-.04,1-.05,.68,.04,1.37,.31,2,.06,.13,.11,.24,.17,.35v.02l.03,.02s.04,.06,.06,.09c0,.01,.02,.03,.03,.04,.03,.04,.06,.08,.09,.12l.02,.02s.05,.06,.08,.09c.01,.01,.02,.02,.03,.03,.02,.02,.04,.04,.06,.06l.04,.03s.04,.03,.07,.05c.01,0,.02,.02,.04,.02,.03,.02,.06,.03,.09,.05h.01s.07,.04,.11,.05h.02s.06,.02,.09,.03h.03s.05,.01,.07,.01h.04s.05,0,.07,0c0,0,.02,0,.03,0h0c3.29,0,6.35-11.59,7.24-20.36,0-.05,.02-.11,.02-.16,0-.06,.02-.11,.03-.17,.01-.07,.02-.15,.03-.22Z"/><rect class="ah" x="475.01" y="736.06" width="3.15" height="29.36"/></g><path id="j" class="aq" d="M899.46,1149.55v-173.81c-281.8-10.79-564.81,10.32-841.89,62.77v111.04H899.46Z"/><path id="k" class="av" d="M899.46,1190.55v-76.19c-53.26-4.06-106.57-7.54-159.91-10.43-69.69-3.77-139.43-6.53-209.19-8.28-70.1-1.76-140.23-2.51-210.35-2.23-69.79,.27-139.57,1.55-209.32,3.85-17.52,.58-35.04,1.21-52.56,1.92-.19,0-.37,.01-.56,.02v91.35H899.46Z"/><path id="l" class="ae" d="M900.97,1117.74v-37.07c-6.5-.76-13.03-1.29-19.53-1.81-11.55-.92-25.62-.61-31.48,9.37-5.82,9.92,.47,23.46-4.74,33.72-4.55,8.98-16.32,11.86-26.27,10.34-9.95-1.52-19.1-6.31-28.89-8.66-9.79-2.36-21.44-1.67-28.1,5.88-8.84,10.01-6.05,28.61-17.88,34.8-14.03,7.34-28.12-11.89-43.92-12.99-18.28-1.28-28.72,20.77-45.17,28.83-9.53,4.67-20.67,4.35-31.26,3.6-10.59-.75-21.54-1.77-31.57,1.72-4.77,1.66-8.32,3.7-10.86,5.99h319.67v-73.72Z"/><path id="m" class="ae" d="M281.63,1168.72c-8.59-7.21-13-20.24-23.89-22.86-20.74-5-34.46,33.07-54.73,26.39-18.54-6.11-11.54-40.41-29.65-47.69-11.04-4.44-22.37,4.95-33.89,7.92-14.78,3.82-30.19-3.29-42.67-12.11-12.48-8.82-23.92-19.69-38.25-24.98-.33-.12-.65-.23-.98-.34v95.61H375.15c-1.26-4.05-3.42-7.77-6.63-10.8-22.03-20.83-63.68,8.36-86.89-11.13Z"/><g id="n"><path id="o" class="ae" d="M630.35,518.59l-3.22-6.17c-2.25-4.31-6.71-7.01-11.57-7.01h0c0,8.17,6.62,14.79,14.79,14.79s14.79-6.62,14.79-14.79h0c-4.86,0-9.31,2.7-11.56,7.01l-3.22,6.17Z"/><path id="p" class="ae" d="M576.64,589.12l-4.74-2.94c-3.31-2.05-7.49-2.09-10.84-.11h0c3.34,5.63,10.61,7.5,16.24,4.16,5.63-3.34,7.5-10.61,4.16-16.24h0c-3.35,1.98-5.32,5.67-5.12,9.56l.3,5.57Z"/><path id="q" class="ae" d="M603.04,603.45l-2.48-3.71c-1.73-2.59-4.75-4-7.85-3.67h0c.56,5.2,5.24,8.96,10.44,8.4s8.96-5.24,8.4-10.44h0c-3.09,.33-5.75,2.36-6.88,5.26l-1.63,4.15Z"/><path id="r" class="ae" d="M457.73,584.96l3.54,3.14c2.47,2.19,5.96,2.83,9.05,1.65h0c-1.98-5.19-7.79-7.79-12.98-5.82-5.19,1.98-7.79,7.79-5.82,12.98h0c3.09-1.18,5.27-3.97,5.65-7.25l.55-4.7Z"/><path id="s" class="ae" d="M751.05,669.36l.98,3.93c.68,2.74,2.83,4.88,5.58,5.54h0c1.12-4.62-1.72-9.27-6.33-10.38-4.62-1.12-9.27,1.72-10.38,6.33h0c2.75,.67,5.63-.25,7.5-2.38l2.67-3.05Z"/></g><g/><g class="af"><text class="ak" transform="translate(128.4 1132.29)"><tspan class="ax"><tspan class="b`" x="0" y="0">J</tspan><tspan x="5.96" y="0">AMIE </tspan></tspan><tspan class="am"><tspan class="aw" x="2.44" y="21">F</tspan><tspan class="ao" x="11.47" y="21">O</tspan><tspan x="24.31" y="21">XX</tspan></tspan></text></g><g class="af"><text class="ak" transform="translate(243.41 1132.29)"><tspan class="ax"><tspan x="0" y="0">L</tspan><tspan class="b`" x="8.38" y="0">E</tspan><tspan x="17.86" y="0">ONARDO</tspan></tspan><tspan class="am"><tspan x="4.72" y="21">DICAPRIO</tspan></tspan></text></g><g class="af"><text class="ak" transform="translate(400.67 1132.29)"><tspan class="ax"><tspan x="0" y="0">CRI</tspan><tspan class="at" x="26.23" y="0">S</tspan><tspan class="ay" x="35.19" y="0">T</tspan><tspan x="44.27" y="0">OPH</tspan></tspan><tspan class="am"><tspan class="au" x="12.07" y="21">W</tspan><tspan x="29.25" y="21">A</tspan><tspan class="al" x="41.37" y="21">L</tspan><tspan x="48.36" y="21">TZ</tspan></tspan></text></g><g class="af"><text class="ak" transform="translate(574.42 1132.29)"><tspan class="ax"><tspan x="0" y="0">KER</tspan><tspan class="ap" x="30.51" y="0">R</tspan><tspan x="40.91" y="0">Y</tspan></tspan><tspan class="am"><tspan class="au" x="-34.15" y="21">W</tspan><tspan x="-16.96" y="21">ASHIN</tspan><tspan class="at" x="35.73" y="21">G</tspan><tspan class="an" x="48.38" y="21">T</tspan><tspan x="57.74" y="21">ON</tspan></tspan></text></g><g class="af"><text class="ak" transform="translate(753.21 1132.29)"><tspan class="ax"><tspan class="at" x="0" y="0">S</tspan><tspan x="8.96" y="0">AMUEL</tspan></tspan><tspan class="am"><tspan x="-12.96" y="21">L. </tspan><tspan class="ba" x="5.36" y="21">J</tspan><tspan class="ag" x="11.54" y="21">A</tspan><tspan x="23.42" y="21">C</tspan><tspan class="aw" x="34.01" y="21">K</tspan><tspan x="44.8" y="21">SON</tspan></tspan></text></g><g class="af"><text class="ai" transform="translate(704.76 74.63)"><tspan x="0" y="0">AND</tspan></text></g><g><path id="t" class="ae" d="M517.36,315.3c-2.31-2.42-1.69-5.7-2.35-8.56-1.74-7.53-3.04-15.16-4.57-22.74-1.29-6.42-2.63-12.82-3.98-19.23-.21-1.01-.58-2-1.24-2.91,0,4.1-.22,8.21,.07,12.28,.2,2.86-.93,4.3-3.34,5.53-3.72,1.89-3.62,1.99-.34,4.56,3.14,2.47,4.68,5.45,2.97,11.19-.64,2.16-.77,4.44-.52,6.67,1.27,11.3,2.36,12.65-1.14,12.64-31.03-.06-62.05-.06-93.08,0-2.25,0-3.22-.7-2.88-2.95,.17-1.13-.36-2.14-.56-3.21-.69-3.82-1.54-7.64,2.24-10.65,1.51-1.2,.34-2.45-1.03-2.47-1.85-.03-1.79-.99-1.86-2.26-.14-2.79-.43-5.57-.53-8.36-.04-1.19-.5-1.54-1.62-1.6-5.43-.31-10.79,1-16.23,.66-1.91-.12-1.91,1.87-2.08,2.82-.84,4.74-1.32,9.55-1.96,14.33-.59,4.41-1.7,8.73-1.98,13.19-.09,1.48-1.16,2.14-2.92,2.13-14.87-.12-29.74-.11-44.61-.11-1.27,0-2.53,.09-3.8,.2-1.65,.15-2.23-.14-1.64-1.73,4.53-12.11,7.92-24.6,12-36.86,2.03-6.11,3.44-12.48,6.57-18.2,.54-1,1.06-1.98-.16-2.9-2.23-1.68-2.15-4.21-1.55-6.33,1.76-6.2,1.87-12.61,2.89-18.9,1.59-9.86,1.75-19.88,3.49-29.74,.53-2.99,.64-6.15,.74-9.22,.13-3.87,.5-7.68,1.25-11.46,.87-4.4,.79-8.88,1.08-13.32,.17-2.58,.77-5.09,.93-7.66,.06-1.02,.22-2.83,2.45-2.72,2.54,.12,1.69-1.32,.67-2.37-1.93-2-4.17-3.7-3.12-7.37,2.9-10.1,3.44-20.67,1.72-31.04-.42-2.55,.15-2.77,1.5-2.76,15.26,.02,30.52,.05,45.78-.02,2.01,0,2.35,1.35,3.09,2.63,.87,1.5,1.54,3.92,3.25,3.83,1.44-.08,1.48-2.58,1.79-4.09,.36-1.79,1.19-2.43,3.04-2.37,4.14,.13,8.29,.07,12.43,.02,1.35-.01,2.43,.16,2.45,1.83-1.1,.83-.29,1.06,.42,1.32,.05,5.44-.18,10.91,.2,16.33,.76,10.79,.59,21.63,1.39,32.37,.63,8.45,2.31,16.92,3.76,25.35,1.34,7.75,2.71,15.5,3.94,23.27,.98,6.21,1.61,12.56,3.38,18.55,1.22,4.12,.32,6.76-2.85,8.86-1.5,.99-1.28,1.7-.11,2.22,7.42,3.27,7.23,10.74,9,17,1.97,6.98,3.48,14.08,4.77,21.22,1.35,7.49,2.93,14.86,5.12,22.11,.24,.79,.21,1.86,1.18,1.78,1.21-.1,.62-1.31,.6-1.96-.19-5.09,.1-10.17-.24-15.27-.19-2.92,.32-6.13,.29-9.19-.07-8.45,.08-16.93-.67-25.32-.7-7.78-.13-15.56-1.04-23.32-1.07-9.23-.78-18.58-1.45-27.83-.54-7.42,.48-14.95-1.41-22.28-.35-1.36,.73-2.4,1.68-3.21,3.5-2.95,3.12-2.93-1.1-6.92-1.14-8.84-.16-17.78-.97-26.58-.69-7.49,.48-14.94-.41-22.38-.05-.4-.01-.81-.04-1.21q-.32-4.98,4.67-5.07c1.31-.02,2.63-.07,3.94-.08,3.81-.03,7.72-.36,10.49,3.83-.23-3.53,1.55-3.57,3.83-3.65,8.77-.29,17.49,.74,26.24,.65,2.97-.03,2.33,2.62,2.25,3.79-.25,3.46,2.46,6.64,.79,10.13,3.11,6.93,3.44,14.54,5.27,21.79,1.97,7.82,3.68,15.72,5.65,23.55,1.08,4.31,2.56,8.52,3.99,13.2,2.66-3.91,1.18-6.16-1.02-13.75,4.51-5.57,2.04-13.4,5.57-19.62,1.15-2.04,.75-3.16-1.68-2.74-3.51,.6-4.01-.96-3.94-4.08,.22-9.77,.16-19.56,.02-29.33-.03-2.42,.44-3.24,3.08-3.24,13.74-.02,27.49-.19,41.23-.52,2.64-.06,3.38,.05,3.19,3.16-.57,9.44-.54,18.92-.75,28.39-.18,8.06-.24,16.14-.64,24.19-.22,4.54,.24,9.05,.06,13.58-.54,13.4-1.03,26.81-1.41,40.22-.26,9.3,.24,18.58-.14,27.86-.12,3.04-.28,6-2.26,8.44-1.01,1.24-.04,1.77,.62,2.09,4.77,2.38,4.68,6.57,4.6,11.02-.21,11.19-.2,22.38-.19,33.57,0,6.61,.07,6.56-6.29,7.33-4.09,.49-8.2,.35-12.28,.69-10.75,.9-21.49-.1-32.23,.29-.12-.8-.68-.98-1.37-.98Zm-123.01-116.09c-.19,5.68-.54,11.14-1.32,16.57-.86,6.05-1.6,12.12-2.4,18.17-.22,1.69,.19,2.74,2.2,2.66,2.42-.09,4.85-.05,7.28-.05,1.62,0,2.3-.24,1.77-2.3-1-3.89-1.54-7.9-2.17-11.88-1.07-6.7-1.98-13.43-3.17-20.11-.18-1-.1-2.7-2.18-3.08Z"/><path id="u" class="ae" d="M577.64,193.72c.12-6.65-.09-13.33,.45-19.94,.74-9.02,.58-18.23,3.07-26.99,2.46-8.64,8.03-15.49,14.83-21.31,3.4-2.91,7.19-5.26,11.01-7.57,2.02-1.22,3.68-1.89,5.43,.8,2.1,3.22,3.88,3.46,5.79,.63,3.84-5.7,9.38-4.39,14.63-4.07,3.19,.19,6.35,.47,9.56,.52,2.25,.04,4.45,1.28,6.73,1.65,4.96,.81,9.96,2.03,14.36,4.04,4.67,2.13,8.82,5.77,12.26,9.86,3.68,4.38,7.26,8.83,9.82,14,1.44,2.91,2.4,6,3.54,9.02,1.02,2.7-.64,3.45-2.32,4.19-5.73,2.53-11.52,4.93-17.29,7.39-7.43,3.17-14.86,6.33-22.26,9.56-2.47,1.08-3.84,.98-4.42-2.2-.64-3.45-2.25-6.66-4.32-9.55-1.5-2.09-4.31-3.42-8.79-2.07-2.38,.72-2.99,2.94-3.25,5.46-1.7,16.41-1.11,32.87-1.43,49.31-.07,3.77-.95,7.54-.87,11.3,.2,9.18,.47,18.38,1.26,27.53,.39,4.45,.3,9.05,1.79,13.38,1.1,3.18,3.59,5,6.71,4.97,3.51-.04,5.96-1.94,7.16-5.27,1.33-3.66,2.1-7.4,1.77-11.28-.18-2.05,.58-3.93,.67-5.92,.07-1.51-.33-2.32-1.96-2.21-.3,.02-.61-.03-.91-.04-2.2-.04-5.31,.78-6.38-.33-1.47-1.54-.33-4.59-.49-6.98-.2-2.98,.2-5.94-.51-8.95-.58-2.46,.19-4.89,2.57-6.48,.92-.61,1.7-1.6,1.48-2.73-.25-1.16-1.5-.65-2.28-.68-1.28-.05-1.81-.66-1.92-1.84-.41-4.7,.5-9.45-.53-14.14-.24-1.09,.68-.99,1.37-.99,10.81,0,21.64-.24,32.44,.1,5.39,.17,10.75-.02,16.12-.13,1.76-.04,2.8,.22,2.85,2.4,.26,10.86,1,21.73,.87,32.58-.06,5.27,.86,10.5,.27,15.75-.17,1.47,.66,2.68,.65,4.07,0,3.25-1.99,5.36-4.31,7.09-1.06,.79-1.51,1.41-.53,2.21,5.08,4.17,3.6,10.06,3.81,15.31,.33,8.34,.53,16.72-.18,25.07-.03,.3,0,.6,0,.91-.06,5.1-.12,4.72-4.97,5.46-7.55,1.15-15.29,.21-22.74,2.25-1.53,.42-3.01,.24-2.66-2.17,.23-1.58-.08-3.23,.07-4.83,.26-2.7-1.1-2.33-2.56-1.36-2.59,1.72-4.97,3.77-7.62,5.38-4.86,2.95-10.11,4.87-15.84,5.44-10.76,1.07-20.81-1.04-29.51-7.43-11.17-8.2-18.77-18.96-21.53-32.78-1.34-6.75-1.94-13.56-1.85-20.43,.03-2.21,.62-3.68,3.14-4.2,1.59-.32,3.13-1.37,.7-3.05-2.72-1.89-2.97-4.82-2.96-7.76,.02-12.6,.09-25.19,.12-37.79,0-3.93-.06-7.86-.1-11.79,.53-.8,.53-1.59-.01-2.38Z"/><path id="v" class="ae" d="M164.98,115.69c7.72-.86,15.46-1.12,23.19-.6,12.02,.8,24.03,1.85,35.47,6.05,4.42,1.62,8.28,4.35,11.92,7.23,6.37,5.04,11.98,10.89,16.52,17.66,3.62,5.41,3.8,6.76-.63,10.7-1.33,1.18-1.76,2.1,.6,2.72,7.82,2.03,9.03,8.6,9.9,15.12,1.02,7.67,1.62,15.39,2.49,23.08,1.37,12.22,.98,24.48,.49,36.71-.22,5.56-1.4,11.11-2.11,16.66-.64,4.99-1.54,9.87-2.95,14.65-2.81,9.5-7.24,18.15-13.27,26.1-7.34,9.68-17.18,15.76-27.99,20.55-4.76,2.11-9.6,4.06-14.6,5.64-4.32,1.37-5.01,1.51-7.85-2.1-.55-.7-1.01-1.48-1.6-2.15-1.06-1.22-2.05-1.14-2.81,.34-.31,.61-.69,1.21-.85,1.86-.87,3.47-3.5,3.25-6.16,2.95-3.05-.35-6.08-.88-9.14-1.11-4.29-.32-8.6-.5-12.9-.61-1.74-.04-1.82-1.02-2.01-2.34-.57-4.13-.28-8.28-.34-12.42-.26-17.93-.32-35.87-1.01-53.79-.23-6.11-.03-12.23-.51-18.32-1.18-14.97-.18-29.96-.6-44.93-.06-1.97,.68-3.26,2.17-4.31,2.47-1.73,2.5-3.23-.25-4.09-1.75-.55-1.88-1.41-1.88-2.8-.01-18.45,.06-36.9-.17-55.34-.03-2.86,1.8-2.61,3.25-3.05,1.11-.34,2.4-.07,3.62-.07Zm36.98,99.11h.34c0,14.62-.01,29.23,.02,43.85,0,1.49-1.56,3.67,1.94,3.82,5.79-4.26,12.12-7.99,14.81-15.12,.14-.38,.77-.89,1.12-.85,2.79,.33,2.42-1.5,2.4-3.23-.02-2.59,.29-5.15,.54-7.73,.84-8.63,.61-17.31,.45-25.95-.13-7.38-1.29-14.74-3.48-21.83-2.61-8.46-6.48-16.03-15.25-19.91-2.35-1.04-2.97-.8-2.95,1.9,.11,15.02,.05,30.04,.05,45.06Z"/><path id="w" class="ae" d="M696.33,270.16c-1.4-34.43-.56-68.35-.52-102.27,0-2.76,.31-5.17,3.55-6,1.06-.27,2.34-.97,2.28-2.03-.07-1.18-1.25-1.72-2.58-1.99-2-.41-2.95-3.63-1.82-6.54,1.62-4.18,3.21-8.42,5.27-12.39,6.73-12.96,17.55-20.71,31.74-23.74,15.59-3.32,29.69-.12,42.5,9.54,10,7.54,14.05,18.25,17.2,29.58,2.04,7.32,2.66,14.89,3.61,22.39,2.39,18.81,.77,37.7,1.19,56.55,.17,7.56,.04,15.13,.02,22.69,0,2.2-.83,4.06-2.57,5.46-1.2,.97-1.88,1.7,.07,2.8,3.48,1.96,1.77,5.21,1.23,7.77-1.88,8.89-5.13,17.28-10.91,24.46-6.14,7.63-13.71,13.29-22.75,17.32-6.94,3.09-13.9,4.55-21.47,4.65-13.84,.18-25.61-4.4-35.09-14.33-5.27-5.53-7.92-12.61-9.68-19.95-1.14-4.75-1.72-9.58-1.29-13.97Zm58.92-59.52c-.13-.99-.36-1.98,.59-2.77,1.93-1.61,3.84-3.24,5.74-4.85-.95-1.53-2.48-2.35-3.91-3.18-1.84-1.06-2.62-2.38-2.59-4.55,.1-6.41,.37-12.84-.58-19.2-.77-5.13-1.63-10.32-5.47-14.29-1.66-1.72-3.97-2.89-5.99-1.49-2.1,1.46-3.73,3.64-4.92,6.13-2.15,4.5-1.89,9.22-1.79,13.92,.39,18.03,.21,36.06,0,54.09-.02,1.8-.07,4.05-1.44,4.88-3.34,2.01-.93,3.14,.52,3.77,3.37,1.46,4.01,3.93,3.89,7.23-.17,4.63-.15,9.28,.11,13.9,.31,5.49,4.53,8.31,9.11,6.22,3.74-1.71,5.71-5.1,5.93-8.88,.46-7.69,.32-15.43,.39-23.14,.08-8.86,.13-17.72,.2-26.57,1.01-.23,1.04-.64,.23-1.21Z"/><path id="x" class="ae" d="M300.31,114.01c4.25-.53,8.07-.64,10.15,3.67,.77,1.58,1.9,1.05,2.77-.12,3.94-5.29,9.68-4.37,15.08-4.13,2.34,.1,4.09,1.64,4.4,4.24,.1,.79,.26,1.6,.22,2.39-.43,8.04,.43,16.05,.79,24.05,.25,5.51-.05,11.04,.49,16.51,1.51,15.3,1.49,30.65,1.32,45.98-.08,6.97-.42,14-.49,20.95-.11,9.74-1.16,19.43-1.02,29.18,.04,3.22-.36,6.55-.48,9.84-.11,3.13-2.93,3.94-5.02,4.8-2.68,1.1-2.33,1.52-.39,3.12,3.42,2.83,3.62,4.82,1.6,8.72-5.47,10.59-13.34,19.18-23.62,25.01-6.82,3.87-14.36,6.62-22.49,7.21-3.29,.24-6.57,.38-9.86,.49-1.58,.05-2.37-.51-2.67-2.08-2.23-11.72-5.53-23.18-8.27-34.78-.47-2.01-.38-2.78,1.95-3.41,7.07-1.94,13.61-5.12,19.21-9.95,4.08-3.51,6.14-8.2,7.07-13.31,2.48-13.67,3.37-27.47,2.89-41.35-.3-8.7-.5-17.41-1.15-26.08-.17-2.27-.16-4.69-1.05-6.97-.92-2.35,2.02-4.45,1.38-6.28-.69-1.97-2.77-3.48-2.67-5.98,.33-7.9-1.2-15.69-1.37-23.59-.14-6.35-.45-12.74-1.11-19.08-.21-2-.43-4.06-1.04-6.07-.53-1.72-.52-3.57,2.48-3.22,3.57,.43,7.28-.2,10.85,.21Z"/><g><path class="ah" d="M548.87,361.34c-2.61,0-5.22,.03-7.83-.03-.48-.01-1.33,.66-1.38-.76-.06-1.53-.49-4.2,.3-4.44,3.16-.98,1.93-4.7,1.85-7.19-.08-2.56-.29-5.14-.28-7.72,0-1.4-.17-2.45-1.23-2.31-1.48,.19-1.06-1.82-.96-4.05-.36-2.44,.07-3.24,1.16-3.24,5.28,.03,10.56,.03,15.84,.02,.8,0,1.52,.6,1.55,1.72,.05,1.91,1.18,2.71,1.7,2.78,1.64,.24,1.46,1.78,1.45,3.47-.02,4.73,0,9.46,0,14.19,0,4.92-1.77,7.64-4.91,7.62-1.21,0-2.42-.05-3.63-.06-1.21-.01-2.42,0-3.63,0Zm-2.01-23.22c.93,2.78-.14,4.53,.98,7.04,.1,.22,.15,.49,.12,.76-.99,10.85-1.74,10.61,3.32,9.35,.35-.09,.72-.07,1.06,.09,2.23,.99,3.31,.61,2.97-1.53-.73-4.55-.27-9.16-.37-13.74-.03-1.36-.22-2.01-1.17-1.98-2.22,.08-4.44,.02-6.91,.02Z"/><path class="ah" d="M224.13,334.53c.24-.43-.56-1.36,.5-1.54,4.46-.74,4.69-.19,5.14,6.94,.39,6.18-.25,12.25-.18,18.26,.07,5.35-1.6,3.52-3,3.66-1.99,.2-3.5-1.55-4.99-3.39-2.01-2.48-3.76-5.38-5.56-8.2-.3-.46-.56-1.39-1.05-.93-.31,.29-.57,1.14-.56,1.73,0,1.79-.24,3.62,.15,5.37,.59,2.59-.31,3.85-1.64,4.7-.34,.21-.75,.13-1.13,.15-2.75,.12-2.68,.11-2.78-4.1-.17-6.66-.22-13.31-.05-19.97,.02-.76-.23-1.32-.29-1.98-.13-1.39-.13-2.65,1.18-2.4,.54,.1,1.08-.05,1.65-.37,.88-.5,1.59-.27,2.3,1.4,2.61,6.21,6.13,11.14,9.64,16.04,.32,.45,.64,.72,1.01,.45,.43-.32,.37-1.14,.26-1.59-1.09-4.36-.45-8.92-.64-13.37,.26-.24,.29-.52,.06-.84Z"/><path class="ah" d="M328.77,345.54c.19,5.27-.63,10-.37,14.82,.05,.83-.02,1.29-.74,1.59-3.49,1.45-4.67,.17-4.99-5.69q-.25-4.67-3.32-4.78c-1.02-.04-2.05,.05-3.05-.13-1.85-.34-2.2,1.61-2.41,3.78-.04,.45,.17,.95,.19,1.43,.15,3.74-.33,4.85-2.28,5.33-2.91,.72-3.04,.75-3.51-3.67-.83-7.83-.51-15.77-.53-23.67,0-1.09,.37-1.65,1.07-1.65,1.34,0,2.73-.41,4,.06,1.67,.61,.94,3.38,1.28,5.14,.3,1.59,.03,3.43,.2,5.11,.16,1.68,1.04,3.29,4.16-.63,4.68,2.52,3.83,.35,3.85-.76,.03-2.41-.02-4.83,0-7.25,0-.63-.2-1.69,.46-1.67,1.92,.08,3.88-.8,5.71,1.32-.37,3.97,.73,7.86,.3,11.33Z"/><path class="ah" d="M463.09,347.72c.26,3.6-.41,8.14,.3,12.59,.16,.97-.25,.92-.62,.96-1.49,.17-2.99-.29-4.48,.54-.54,.3-1.01-.66-1.47-1.4-2.39-3.84-4.83-7.61-7.51-10.96-.4-.5-.78-1.23-1.31-.73-.44,.42-.19,1.28-.2,1.93-.03,2.41,0,4.83,0,7.25-.02,3.04-.38,3.3-3.1,3.46-1.54,.09-1.93-.81-1.92-3.16,.02-4.42-1.17-8.61-1.13-13.09,.03-3.58,.8-6.98,.86-10.56,.03-2,3.35-2.67,4.48-.88,2.05,3.24,3.96,6.69,5.8,10.23,1.16,2.23,2.43,4.33,3.99,5.93,.85,.88,1.31,1.06,1.38-.99,.11-3.12-.39-6.12-.57-9.18-.02-.28-.17-.54-.21-.82-.63-5.37,.2-6.11,3.69-5.63,2.26,.31,2.09,1.93,2.05,4.29-.05,3.12-.01,6.24-.01,10.23Z"/><path class="ah" d="M509.42,332.72c.77-.01,1.09,.18,1.14,1.58,.16,4.6,.21,4.59-2.65,4.59-3.12,0-6.25-.03-9.37,.02-.78,.01-1.82-.63-1.83,1.81,0,2.03,.38,3.42,1.66,3.53,1.7,.15,3.44,.16,5.13-.19,.81-.17,1.9-.83,2.27,.07,.49,1.2,.52,3.01,.49,4.54-.02,1.04-.75,1.09-1.36,1.07-1.97-.06-3.95-.1-5.93-.05-1.72,.04-2.16,1.18-1.84,4.77,.22,2.58,1.42,1.12,2.18,1.15,3.56,.13,7.13,.04,10.69,.28,1.01,.07,.4,1.77,.52,2.71,.37,2.95-.22,3.9-2.73,3.51-3.89-.61-7.82-.75-11.71-.15-3.04,.47-3.75,.22-4.01-3.5-.6-8.55,.14-17.03-.04-25.54,5.8-.07,11.59-.11,17.39-.23Z"/><path class="ah" d="M366.9,332.85c1.39,.29,3.23-.81,4.76,.46,1.62,1.35,1.07,4.65,1.74,6.97,1.63,5.59,3.01,11.36,3.81,17.42,.2,1.48,.73,3.27-.69,3.92-1.34,.61-2.9,1.2-3.51-1.61-.48-2.2-1.39-2.5-2.59-2.48-1.91,.03-3.82,0-5.73,.04-1.3,.03-2.55-.48-3.06,2.74-.37,2.34-2.29,1.65-3.57,1.5-1.1-.12-.51-1.73-.54-2.65-.26-6.31,1.64-11.9,2.49-17.84,.31-2.17,.73-4.32,.91-6.51,.13-1.61,.6-2,1.5-1.96,1.4,.06,2.8,.02,4.51,.02Zm.32,18.12c.51,0,1.02-.07,1.52,.01,1.66,.26,2.21-.51,1.5-3.21-.51-1.95-.71-4.12-.98-6.21-.43-3.37-2.1-2.04-3.25-1.95-1.38,.1-1.02,2.37-.78,3.3,.36,1.39,.2,2.47-.07,3.66q-1,4.43,2.05,4.4Z"/><path class="ah" d="M267.39,331.63c3.1,0,6.2-.27,9.28,.55,.99,.26,1.74,.62,1.65,2.71-.12,2.71-.03,5.44-.03,8.16,0,.5,.04,1.03-.04,1.5-.16,.99-.93,1.39-1.17,.92-1.03-1.98-3.17,1.52-3.76-2.02-.08-.47,0-1,0-1.51,0-4.77,0-4.74-2.99-4.59-1.65,.08-3.32,.19-4.97,.02-1.09-.11-1.26,.54-1.24,2.04,.05,4.94,.06,9.87,.02,14.81-.01,1.43,.34,1.62,1.12,1.59,2.42-.08,4.84-.12,7.26-.01,1.27,.06,1.65-.68,1.6-2.65-.04-1.45-.52-3.71,.24-4.23,1.08-.74,2.48-.31,3.75-.36,.54-.02,.67,.54,.53,1.19-.75,3.36-.26,6.79-.2,10.18,.03,1.56-.33,2.24-1.22,1.93-5.12-1.78-10.31-1.06-15.47-1.12-2.4-.03-2.51-.13-2.58-4-.15-7.65,.42-15.3,.07-22.95-.08-1.76,.4-2.23,1.46-2.18,2.23,.11,4.46,.03,6.69,.03Z"/><path class="ah" d="M159.22,357.44c-.06-7.25,.06-14.5,.05-21.76,0-2.01,.69-2.59,1.67-2.21,1.03,.39,2.86-1.55,2.92,2.02,.08,5.2,.58,10.36,.46,15.59-.03,1.53-1.11,3.43-.17,4.39,.78,.79,2.09,.34,3.16,.34,2.1,0,4.76,1.15,6.12-.45,1.31-1.54-.09-6.16,.47-9.14,.67-3.54-.29-6.96,.26-10.46,.28-1.77,.62-2.29,1.69-2.35,4.15-.23,4.29,.26,3.3,7.11,.23,6.61-.17,13.18-.33,19.76-.04,1.6-.32,1.99-1.33,1.96-5.1-.11-10.19-.08-15.29-.07-.94,0-1.88,.15-2.81,.2-.88-1.62-.15-3.29-.17-4.94Z"/><path class="ah" d="M412.73,348.1c.08,4.18-.13,8.09,.22,11.99,.14,1.52-.2,2.58-1.35,2.4-.13-.02-.25,0-.38,0-5.12,.16-5.17-.44-4.96-8.77,.13-5.21,.17-10.52-.14-15.76-.22-3.73,.49-5.1,2.91-5.1,.57,0,1.14,0,1.72,0,1.22,0,1.84,.85,1.85,2.9,.03,4.21,.43,8.4,.12,12.35Z"/></g></g><path class="ae" d="M531.3,600.07c.66,0,1.19,.17,1.3,.93-.59,.28-1.22,.45-1.69-.13-.28-.35,.02-.64,.39-.8Z"/><path class="ae" d="M449.43,411.91c-.67-.25-1.44-.46-.4-1.25,.69,.24,.61,.72,.4,1.25Z"/><path class="ae" d="M692.51,616.81l-.27,.59-.49-.46,.77-.13Z"/><path class="ae" d="M289.25,618.32c.35,.31,.31,.57-.09,.8l.09-.8Z"/><path class="ae" d="M191.64,644.43l.75,.3c-.38,.21-.62,.11-.75-.3Z"/><g id="y"><path id="a`" class="ah" d="M147.22,832.16c-1.27-.03-2.35,.82-2.78,1.98-.21,.56-.26,1.16-.27,1.75,0,.57,.14,1.22-.24,1.72-.32,.42-.8,.64-1.33,.73,.09-1.65,.13-3.29,.02-4.92-.21-3.3-1.3-6.52-4.04-8.57-2.38-1.78-5.54-1.99-8.05-.3-2.74,1.85-3.91,4.97-4.27,8.14-.41,3.64-.19,7.42,.09,11.06,.09,1.14,.19,2.27,.31,3.4-1.18-.16-2.29-.75-3.06-1.68-1.18-1.42-1.11-3.04-1.13-4.79-.02-1.69-.34-3.38-1.58-4.62-1.11-1.12-2.76-1.54-4.21-.84-1.54,.74-2.31,2.31-2.59,3.93-.29,1.67-.45,3.43-.4,5.13,.1,3.33,1.36,6.44,4.33,8.19,2.93,1.73,6.25,1.69,9.5,1.2,.81,5.29,1.88,10.55,2.94,15.79,.13,.65,.54,.99,1.02,1.1,.46,.45,1.15,.68,1.88,.37,.62-.27,1.57,.16,2.19,.27,.71,.12,1.44,.17,2.14,.02,1.69-.37,2.54-1.63,2.74-3.28,.45-3.83,.62-7.72,.9-11.56,.28-3.9,.55-7.8,.8-11.7,.02-.27,.04-.53,.05-.8,2.19,.1,4.39-.64,5.91-2.32,1.7-1.87,2.4-4.67,1.64-7.11-.37-1.18-1.17-2.27-2.52-2.29Z"/><path id="aa" class="ah" d="M101.25,829.81c-1.38-.01-2.45,1.05-2.86,2.3-.47,1.42,0,2.94-.22,4.39-.26,1.66-1.08,3.13-2.25,4.21-.19-1.91-.38-3.81-.57-5.72l-1.51-15.21c2.03-.23,3.98-.87,5.57-2.08,3.36-2.54,3.24-7.01,2.84-10.8-.23-2.2-.62-4.39-1.22-6.52-.43-1.53-1.26-3.34-3.12-3.35-2.11,0-3.02,2.1-3.07,3.91-.06,2.29,.52,4.54,.72,6.81,.17,1.99,.1,4.31-1.25,5.93-.29,.35-.63,.64-.99,.87l-1.19-12.01c-.28-2.77-.55-5.54-.83-8.31-.19-1.85-.48-4.04-2.4-4.89-2.07-.92-4.11,.57-5.29,2.19-1.3,1.8-1.88,3.98-2.14,6.15-.26,2.18-.15,4.39-.04,6.58,.11,2.21,.25,4.42,.43,6.63-2.28-.47-4.26-1.97-5.23-4.14-.61-1.35-.63-2.67-.58-4.12,.05-1.41-.51-2.91-2.02-3.27-3.29-.78-3.26,4.25-3.15,6.17,.16,2.9,1.04,5.78,3.03,7.96,2.08,2.29,5.43,3.42,8.39,2.4,.39,3.96,.88,7.91,1.45,11.85,.33,2.28,.7,4.56,1.1,6.83-2.11,.28-4.29-.55-5.55-2.48-.93-1.44-.95-2.81-.95-4.46,0-1.57-.56-3.39-2.22-3.93-1.54-.5-3.1,.48-3.73,1.88-.7,1.55-.49,3.51-.41,5.17,.17,3.39,1.1,7.02,4.17,8.93,2.99,1.87,6.5,1.38,9.73,.46,1.49,7.48,3.33,14.89,5.51,22.2,.34,1.14,1.71,1.11,2.28,.41,1.96-.09,3.42-1.92,3.74-3.79,.2-1.14,.08-2.27-.04-3.41-.14-1.38-.28-2.77-.41-4.15-.17-1.73-.34-3.45-.51-5.18,4.24-1.28,7.55-4.93,8.17-9.52,.33-2.46,0-6.87-3.38-6.9Z"/></g><g id="ab"><path id="ac" class="ah" d="M882.44,837.56c-1.5-.03-2.77,.96-3.28,2.34-.25,.66-.31,1.37-.32,2.07,0,.68,.16,1.44-.28,2.02-.38,.5-.94,.75-1.57,.87,.11-1.94,.15-3.88,.03-5.8-.25-3.9-1.54-7.7-4.76-10.11-2.81-2.1-6.54-2.34-9.49-.35-3.24,2.19-4.61,5.86-5.04,9.6-.49,4.3-.22,8.75,.11,13.05,.1,1.34,.23,2.68,.37,4.02-1.39-.19-2.7-.89-3.61-1.98-1.39-1.68-1.31-3.59-1.33-5.65-.02-2-.4-3.98-1.86-5.45-1.31-1.32-3.26-1.82-4.97-.99-1.82,.87-2.73,2.72-3.05,4.63-.34,1.97-.53,4.05-.47,6.05,.11,3.93,1.61,7.6,5.11,9.67,3.45,2.04,7.38,1.99,11.21,1.42,.96,6.24,2.21,12.45,3.47,18.63,.16,.76,1.08,8.16,1.65,8.28,.54,.53,1.35,.8,2.21,.43,.73-.31,1.85,.19,2.59,.32,.84,.14,1.69,.2,2.53,.02,2-.43,2.56-8.91,2.79-10.86,.53-4.52,.73-9.11,1.06-13.65,.33-4.6,.65-9.21,.94-13.81,.02-.31,.04-.63,.06-.94,2.59,.12,5.18-.76,6.97-2.73,2.01-2.21,2.83-5.52,1.94-8.39-.43-1.4-1.39-2.67-2.98-2.71Z"/><path id="ad" class="ah" d="M827.8,872.2c-1.01,0-1.79,.77-2.09,1.68-.35,1.04,0,2.14-.16,3.21-.19,1.21-.79,2.28-1.64,3.07-.14-1.39-.28-2.78-.41-4.17l-1.1-11.09c1.48-.17,2.9-.64,4.06-1.51,2.45-1.86,2.36-5.11,2.07-7.88-.17-1.6-.45-3.2-.89-4.76-.32-1.12-.92-2.43-2.27-2.44-1.54,0-2.2,1.53-2.24,2.85-.05,1.67,.38,3.31,.52,4.97,.13,1.45,.07,3.15-.91,4.32-.21,.25-.46,.46-.72,.63l-.87-8.76c-.2-2.02-.4-4.04-.6-6.06-.14-1.35-.35-2.95-1.75-3.57-1.51-.67-3,.41-3.85,1.6-.95,1.31-1.37,2.9-1.56,4.49-.19,1.59-.11,3.2-.03,4.8,.08,1.61,.19,3.23,.31,4.84-1.66-.34-3.11-1.44-3.82-3.02-.44-.99-.46-1.95-.42-3.01,.03-1.03-.37-2.12-1.47-2.38-2.4-.57-2.38,3.1-2.3,4.5,.12,2.12,.76,4.21,2.21,5.81,1.52,1.67,3.96,2.49,6.12,1.75,.28,2.89,.64,5.77,1.06,8.64,.24,1.67,.51,3.33,.8,4.98-1.54,.2-3.13-.4-4.04-1.81-.68-1.05-.69-2.05-.69-3.26,0-1.15-.41-2.47-1.62-2.87-1.12-.37-2.26,.35-2.72,1.37-.51,1.13-.36,2.56-.3,3.77,.12,2.47,.81,5.12,3.04,6.52,2.18,1.36,4.74,1,7.1,.34,1.09,5.46,2.43,10.86,4.02,16.19,.25,.83,1.25,.81,1.67,.3,1.43-.07,2.49-1.4,2.73-2.76,.14-.83,.06-1.66-.03-2.48-.1-1.01-.2-2.02-.3-3.03-.13-1.26-.25-2.52-.38-3.78,3.09-.94,5.51-3.59,5.96-6.94,.24-1.79,0-5.01-2.47-5.03Z"/></g></g></g></svg>