<?xml version="1.0" encoding="UTF-8"?><svg xmlns="http://www.w3.org/2000/svg" viewBox="0 0 204.55 71.99"><defs><style>.e{fill:#722332;}</style></defs><g id="a"/><g id="b"><g id="c"><path id="d" class="e" d="M204.55,25V1.37c-4.16-.48-8.34-.82-12.49-1.15-7.39-.59-16.39-.39-20.15,5.98-3.73,6.32,.3,14.96-3.03,21.49-2.91,5.72-10.44,7.56-16.81,6.59-6.37-.97-12.22-4.02-18.48-5.52-6.26-1.5-13.72-1.06-17.98,3.75-5.66,6.38-3.87,18.24-11.44,22.18-8.98,4.68-17.99-7.58-28.1-8.28-11.69-.81-18.38,13.24-28.9,18.38-6.1,2.98-13.23,2.77-20,2.3-6.78-.48-13.79-1.13-20.2,1.1-3.05,1.06-5.32,2.36-6.95,3.82H204.55V25Z"/></g></g></svg>